<?xml version="1.0" encoding="UTF-8"?>
<!-- Created with Inkscape (http://www.inkscape.org/) -->
<svg width="296.37mm" height="109.56mm" version="1.1" viewBox="0 0 296.37 109.56" xmlns="http://www.w3.org/2000/svg">
 <defs>
  <clipPath id="clipPath725">
   <path d="m1200 102.44h-1200v345.33l1.1562-0.3c0.76563 0.691 1.5938 1.328 2.8008 1.574 0.61328 0.851 1.4141 1.504 2.4883 1.891 0.46875-0.567 0.84766-0.817 1.4219-0.817 0.28906 0 0.63672 0.067 1.0703 0.188 1.1602-0.192 1.5273-1.188 2.8008-1.262 2.3086 1.754 3.418 4.73 5.289 6.93 0.3868 0.98 0.6875 2.043 1.8711 2.207 2.711-0.297 4.2149-1.817 5.5977-3.465 1.1484-0.203 2.3789-0.324 3.1094-0.946 0.7656-3.328 1.7929-6.378 2.4922-9.769 0.5156-0.102 0.9804-0.145 1.3984-0.145 2.8008 0 3.6406 1.981 5.7617 2.664 0.4766-1.402 1.6875-2.07 2.4883-3.148 0.6094-1.379 1.7539-2.215 2.4922-3.469 2.1992-0.605 4.0117-1.605 6.2226-2.203 1.2657-1.344 2.2618-2.961 4.043-3.781 1.8086-0.231 3.2188-1.414 4.8945-1.414 0.3282 0 0.6641 0.047 1.0196 0.152 0.9179-1.062 2.2031-1.758 4.0468-1.89 0.2969-0.055 0.5625-0.079 0.8047-0.079 1.625 0 2.1289 1.137 3.5508 1.34 2.3086-1.105 5.1524-1.574 8.0235-1.574 2.5 0 5.0195 0.356 7.2265 0.945 1.4297 0.653 1.3945 2.782 3.4219 2.836 1.1055-0.402 2.1914-0.566 3.25-0.566 3.2344 0 6.2109 1.558 8.5781 2.769l2.1758-0.945c1.7929 0.914 4.2109 1.203 6.8479 1.262 3.594 2.242 8.105 3.558 12.449 5.039l2.484 1.894c0.801 0.622 1.414 1.606 2.493 1.891 0.66 0.805 1.527 1.391 2.492 1.891 0.687 0.773 1.027 1.898 2.176 2.207 2.562 0.765 4.671 1.992 7.16 2.832 0.535 1.035 1.636 1.488 2.175 2.523l1.247 1.258 1.246 1.262c0.246-0.039 0.468-0.055 0.679-0.055 0.512 0 0.93 0.098 1.352 0.191 0.418 0.098 0.836 0.196 1.351 0.196 0.114 0 0.231-4e-3 0.352-0.016 1.879 0.723 2.449 2.77 4.98 2.832 0.778 1.422 1.981 2.406 3.422 3.152 3.043 0.059 4.02 2.215 7.114 2.215 0.117 0 0.23-4e-3 0.351-0.011 1.805-0.176 1.321-2.661 3.117-2.832 0.325 0.027 0.637 0.035 0.942 0.035 0.554 0 1.078-0.032 1.566-0.067 0.492-0.035 0.953-0.066 1.387-0.066 0.379 0 0.738 0.023 1.082 0.098 1.398-0.899 4.078-0.493 4.672-2.207 0.508 0.148 0.871 0.199 1.211 0.199 0.539 0 1.015-0.129 1.898-0.199 1.332-1.59 2.309-3.543 3.422-5.356 1.156-0.629 2.059-1.172 3.387-1.172 0.469 0 0.988 0.067 1.594 0.227 0.253-0.774 0.457-2.391 1.128-2.391 0.125 0 0.266 0.055 0.426 0.184 1.082 0.269 1.172 1.547 1.867 2.207 0.372 0.988 1.051 1.668 1.247 2.836 0.851 1.871 1.968 3.468 2.492 5.672 0.593 0.082 0.996 0.359 1.675 0.359 0.153 0 0.317-0.012 0.5-0.047 0.176 1.922 1.54 2.645 2.797 3.469l0.625-0.32h1.246c2.559 3.292 4.352 7.359 8.711 8.824 0.02 0 0.039 4e-3 0.059 4e-3 0.551 0 0.715-0.395 0.879-0.789 0.16-0.395 0.324-0.789 0.879-0.789 0.019 0 0.035 0 0.054 3e-3 1.083 3.52 2.477 6.735 4.043 9.766 0.942-0.41 2.571-0.133 3.118-0.941l0.929-1.266c8e-3 -4e-3 0.016-4e-3 0.024-4e-3 0.148 0 0.308 0.168 0.472 0.34 0.161 0.168 0.321 0.336 0.461 0.336 0.11 0 0.207-0.098 0.289-0.356l0.934-2.519c0.105-1.152 0.031-2.488 1.242-2.524 2.938 0.606 2.895 4.211 5.289 5.356 1.012-1.391 1.164-3.656 2.492-4.727 1.688 1.129 3.34 2.293 4.981 3.465 0.527 1.887 1.391 3.426 2.176 5.047 1.672-1.258 3.004-2.844 4.05-4.726 0.176 0.281 0.36 0.382 0.551 0.382 0.246 0 0.504-0.175 0.766-0.351 0.258-0.18 0.523-0.356 0.785-0.356 0.027 0 0.051 4e-3 0.074 4e-3l1.864 0.633c1.781-0.621 3.367-1.426 5.601-1.574l2.184 1.574c0.722 1.266 0.984 1.691 2.175 1.895 0.133 0.019 0.262 0.031 0.387 0.031 1.602 0 2.731-1.645 3.973-1.926 2.668 2.234 3.82 6 7.156 7.563 2.856-2.149 4.223-5.805 7.156-7.875 1.196 0.996 1.407 2.984 3.426 3.148 1.063-0.703 2.313-1.231 2.488-2.836 0.539-1.234 0.938-2.617 1.555-3.781 1.137 8e-3 1.399 0.894 2.184 1.261l2.797 0.946h2.488c0.875-0.903 1.289-2.27 2.18-3.153 1.152 1.356 1.043 3.989 2.8 4.727 1.118-0.34 2.035-0.875 2.805-1.574l2.176-1.574c2.633 0.488 3.476 2.777 6.222 3.148 1.512-0.676 2.227-2.16 3.114-3.465 0.504-2.015 1.312-3.711 1.867-5.672l0.625-0.945 2.797-1.891c0.25-0.488 0.512-0.968 1.246-0.968 0.094 0 0.199 7e-3 0.312 0.027 0.68-0.094 0.594-0.965 1.368-0.965 0.058 0 0.121 4e-3 0.187 0.016 1.34-1.582 2.426-3.426 4.047-4.727h4.047c1.535-0.847 2.574-2.207 4.949-2.207h0.023c0.969-2.066 2.313-3.754 4.668-4.41 1.067-2.387 2.278-4.629 4.364-5.984 1.176 0.265 2.199 0.695 3.648 0.695 0.317 0 0.656-0.02 1.02-0.066 0.625-2.52 1.629-4.649 2.797-6.618 0.347-1.222 0.859-2.277 1.558-3.152 0.07-1.609 1.758-1.578 1.863-3.148 0.266-0.161 0.461-0.223 0.618-0.223 0.562 0 0.601 0.824 1.566 0.851 0.406-2.003 1.719-3.089 2.484-4.726 0.485 0.207 0.911 0.293 1.289 0.293 1.676 0 2.493-1.703 3.692-2.496 0.461 0.551 0.918 1.105 1.555 1.105 0.191 0 0.394-0.051 0.625-0.164l1.871-1.574 1.55-1.891c0.977-1.429 2.793-2.007 4.047-3.148 1.348 1.047 3.184 1.605 4.668 2.516 0.09-1.485 1.27-1.86 1.559-3.149 0.93 0.047 1.32 0.637 2.297 0.637 0.058 0 0.121 0 0.187-4e-3 0.535-0.879 1.215-1.609 2.614-1.609 0.16 0 0.328 0.011 0.503 0.031 1.618 1.511 1.817 4.461 4.356 5.043 0.949-2.824 3.043-4.485 4.047-7.25 0.133-0.242 0.304-0.321 0.496-0.321 0.176 0 0.363 0.067 0.547 0.137 0.183 0.067 0.355 0.137 0.504 0.137 0.14 0 0.254-0.067 0.32-0.266 0.277-0.98 1.039-1.465 1.242-2.519 1.195 0.14 1.719 0.89 2.676 0.89 0.297 0 0.641-0.07 1.059-0.261 0.832-0.418 1.441-1.059 1.558-2.207 0.293 0.164 0.547 0.234 0.774 0.234 1.003 0 1.484-1.332 2.652-1.492 0.82 0.484 0.691 1.945 1.996 1.945 0.145 0 0.305-0.019 0.488-0.059 0.2 0.032 0.387 0.043 0.563 0.043 1.898 0 2.238-1.578 3.484-2.25 0.774 0.907 1.61 1.735 2.805 2.207 1.691-0.277 3.078-0.863 4.973-0.941 3.207 1.16 4.671 4.094 7.472 5.668 0.887 0.129 1.672 0.359 2.684 0.359 0.234 0 0.476-0.011 0.738-0.043 1.363 1.247 2.82 2.395 5.293 2.524 0.469 1.098 0.879 2.258 1.863 2.836 0.293-0.176 0.578-0.25 0.856-0.25 1.078 0 2.078 1.074 2.883 1.508l1.863-0.317c1.555 0.324 2 1.762 3.734 1.895 1.446-1.16 2.668-2.555 4.36-3.465 0.203-0.063 0.386-0.086 0.558-0.086 0.442 0 0.789 0.16 1.102 0.32 0.312 0.16 0.586 0.321 0.871 0.321 0.183 0 0.375-0.067 0.582-0.246 0.84-0.512 1.48-1.227 1.863-2.2 0.891-0.457 0.496-2.207 1.828-2.207h0.039c1.176 0.282 2.637 0.27 3.735 0.629 1.183-1.43 2.472-2.754 2.804-5.043 1.778-0.929 3.125-2.297 4.043-4.094 0.407 0.157 0.715 0.223 0.957 0.223 1.028 0 0.938-1.141 2.157-1.484 1.453 0.203 2.828 0.496 4.355 0.629 2.481 1.902 6.027 2.722 9.649 3.464 0.136 0.032 0.253 0.043 0.363 0.043 0.461 0 0.672-0.253 0.883-0.511s0.422-0.516 0.882-0.516c0.11 0 0.227 0.012 0.364 0.043 0.574 0.551 1.594 0.649 2.715 0.649 0.32 0 0.648-8e-3 0.976-0.016s0.653-0.016 0.973-0.016c0.211 0 0.422 4e-3 0.625 0.012 2.715 1.035 4.5 3.004 8.09 3.152 1.965 1.578 3.425 3.668 5.597 5.043 1.996 1.551 3.407 3.692 5.914 4.723 3.957 3.246 8.993 5.394 14.629 6.934 1.36 0.933 2.887 1.699 4.356 2.515 2.894 0.649 5.172 1.91 8.094 2.528 0.375 0.023 0.742 0.035 1.093 0.035 2.449 0 4.367-0.539 6.688-0.672 4.836 0.777 8.164 3.078 12.133 4.726 1.832 2.246 4.179 3.965 6.851 5.36 1.363 0.191 2.305 0.816 3.731 0.945 0.972 1.016 2.468 1.492 3.734 2.207 3.805 0.879 6.336 3.043 10.895 3.149 2.957-0.887 5.953-1.747 8.089-3.465 1.133-0.024 2.539-0.368 3.805-0.368 0.656 0 1.273 0.09 1.797 0.368 1.051-0.618 2.562-0.77 4.047-0.946 0.082 0 0.164-4e-3 0.246-4e-3 0.836 0 1.512 0.168 2.183 0.336 0.672 0.168 1.348 0.336 2.188 0.336 0.211 0 0.434-0.011 0.672-0.035 2.379 1.789 5.277 3.055 8.098 4.406 2.75 0.469 5.605 0.836 8.082 1.579 4.433 2.578 9.308 4.714 13.695 6.933 1.598 0.809 3.211 1.75 4.976 2.203 3.645 2.512 7.629 4.68 12.141 6.305 1.836-0.348 3.352-1.027 4.981-1.578 1.273 0.289 2.785 0.336 4.339 0.336 0.387 0 0.782-4e-3 1.172-8e-3 0.391 0 0.781-4e-3 1.172-4e-3 1.5 0 2.961 0.043 4.203 0.305 2.082 1.152 4.446 2.023 6.231 3.468 1.965 1.27 3.476 2.993 5.91 3.786 1.027 0.129 2.035 0.179 3.074 0.179 1.277 0 2.602-0.078 4.082-0.179 2.207-1.129 3.442-3.25 5.922-4.098 1.98 0.609 3.941 1.25 6.219 1.57 2.375-0.222 3.449-1.754 5.293-2.519 2.336 1.722 5.976 2.144 9.648 2.519 1.836 1.289 3.867 2.379 6.531 2.836 0.903 0.774 1.743 1.606 2.805 2.207 0.109 0.024 0.207 0.032 0.297 0.032 0.234 0 0.391-0.063 0.519-0.129 0.129-0.063 0.231-0.125 0.34-0.125 0.11 0 0.227 0.054 0.399 0.222 1.804 2.375 5.672 2.664 8.086 4.41 0.234-0.156 0.48-0.214 0.734-0.214 0.426 0 0.875 0.168 1.371 0.332 0.5 0.168 1.043 0.336 1.653 0.336 0.289 0 0.593-0.04 0.917-0.133 1.067 0.883 2.61 1.449 4.043 1.886 1.868 0.579 4.168 1.231 6.219 1.262h0.184c1.387 0 2.808-0.246 4.242-0.488 1.437-0.246 2.887-0.492 4.336-0.492 0.297 0 0.594 8e-3 0.887 0.031 2.179 0.473 3.332 0.562 5.297 1.578 0.074-4e-3 0.152-4e-3 0.226-4e-3 0.699 0 1.309 0.094 1.914 0.188 0.61 0.093 1.215 0.187 1.914 0.187 0.289 0 0.598-0.015 0.926-0.055 1.391-0.144 1.836-1.257 3.367-1.257h0.051c0.121-8e-3 0.242-8e-3 0.363-8e-3 2.16 0 3.414 0.922 5.555 0.949 1.902-0.551 3.269-1.648 5.723-1.648 0.351 0 0.722 0.023 1.121 0.07 1.445-0.941 3.144-1.645 4.043-3.148 1.914-0.059 3.015-0.934 4.043-1.891 1.882-0.199 2.558-1.613 4.355-1.891 0.215-0.047 0.461-0.07 0.731-0.07 0.593 0 1.304 0.102 2.05 0.199 0.746 0.102 1.532 0.199 2.274 0.199 0.918 0 1.773-0.152 2.418-0.644 2.156 1.074 3.797 2.668 6.218 3.469 4.598 0.187 9.235 0.629 15.364 0.629h0.203 0.078c0.406 0 0.645 0.164 0.887 0.332 0.238 0.164 0.48 0.332 0.883 0.332 0.097 0 0.207-0.012 0.328-0.036 0.218 0.039 0.414 0.055 0.593 0.055 0.856 0 1.364-0.359 2.211-0.367 0.996 0.25 1.575 0.93 2.801 0.941 1.711 0.149 3.297 0.203 4.82 0.203 4 0 7.586-0.382 11.981-0.511 1.851-0.543 3.809-0.981 5.918-1.262 2.312-2.066 6.219-2.52 9.644-3.469 1.711-0.89 2.786-2.426 4.668-3.152h0.121c1.348 0 2.723-0.481 4.235-0.961 1.508-0.484 3.148-0.965 5.023-0.965 0.293 0 0.59 0.012 0.899 0.035 3.308-3.359 9.519-1.875 15.242-2.836 2.336 0.481 5.09 0.52 7.156 1.266 1.914 0.863 3.055 2.52 5.824 2.52h0.086c2.188 0 3.067-1.309 4.668-1.891 0.813 0.48 1.95 0.633 3.242 0.633 0.063 0 0.125-4e-3 0.188-4e-3 0.578-0.227 0.949-0.668 1.75-0.668 0.129 0 0.27 0.012 0.426 0.039 1.289-0.902 2.511-1.875 3.73-2.836 2.539-1.113 5.75-1.527 7.781-3.148 0.758 0.093 1.161 0.14 1.559 0.14 0.402 0 0.801-0.047 1.559-0.14 2.84-0.891 6.882-1.575 9.648-1.579 2.5-1.144 5.32-1.964 8.399-2.519 0.101-8e-3 0.199-0.012 0.293-0.012 0.753 0 1.332 0.18 1.91 0.36 0.578 0.175 1.16 0.355 1.914 0.355 0.261 0 0.547-0.023 0.863-0.074 1.836-0.664 3.125-1.875 5.293-2.207 1.367 0.32 2.465 0.422 3.555 0.422 0.761 0 1.515-0.051 2.351-0.106l0.317 0.313c1.539 0 3.191-0.539 4.851-0.539 0.559 0 1.121 0.062 1.68 0.226 4.531-2.035 8.555-4.574 13.074-6.621 0.477 0.047 0.926 0.066 1.356 0.066 2.367 0 4.113-0.628 6.109-1.007h0.047c0.765 0 1.441 0.089 2.121 0.183 0.676 0.094 1.351 0.184 2.113 0.184 0.321 0 0.656-0.016 1.012-0.055 1.043-0.414 2.516-0.387 3.426-0.941 0.24 0.051 0.44 0.074 0.63 0.074 0.62 0 0.99-0.258 1.36-0.512 0.37-0.258 0.73-0.511 1.35-0.511h0.08c0.26-0.028 0.5-0.04 0.73-0.04 1.02 0 1.81 0.231 2.7 0.36 2.27-1.535 5.16-2.199 8.3-2.199 1.25 0 2.53 0.105 3.83 0.3 1.38-0.492 3.05-0.687 4.05-1.57 0.2 0.012 0.41 0.016 0.61 0.016 2.08 0 3.65-0.528 4.99-1.278 0.11 4e-3 0.21 8e-3 0.31 8e-3 2.29 0 3.77-0.808 5.6-1.265 0.19-0.036 0.36-0.051 0.51-0.051 0.39 0 0.68 0.097 0.97 0.195s0.58 0.195 0.96 0.195c0.12 0 0.23-7e-3 0.36-0.027 3.4-1.074 6.94-2.008 10.58-2.836 3.42-1.797 5.78-4.648 9.34-6.301 2.78-2.543 6.37-4.257 8.72-7.25 0.18-0.031 0.34-0.047 0.49-0.047 0.68 0 1.08 0.282 1.68 0.364l0.93-1.578 1.56 0.32c1.51 0.09 1.94 1.266 3.54 1.266 0.07 0 0.13-4e-3 0.19-8e-3 0.49-0.871 1.08-1.641 2.18-1.891 0.49 0.16 0.88 0.184 1.21 0.184h0.23c0.07-4e-3 0.14-4e-3 0.21-4e-3 0.42 0 0.77 0.051 1.16 0.453 0.02-8e-3 0.05-8e-3 0.08-8e-3 0.58 0 1 1.063 2.09 1.266 0.45-0.426 0.5-0.832 0.9-0.832 0.16 0 0.36 0.058 0.66 0.203 0.25 0.488 0.51 0.972 1.25 0.972 0.09 0 0.2-7e-3 0.31-0.027 0 0.942 0.81 1.07 0.93 1.891 0.96 0.82 1.03 2.539 2.79 2.539 0.1 0 0.21-8e-3 0.32-0.02 1.68-0.078 0.72-2.836 2.48-2.836h0.01c0.69-0.464 1.35-0.953 2.5-0.953 0.1 0 0.2 4e-3 0.3 0.012 2.11 0.164 2.24 2.352 4.36 2.519 0.59 1.606 1.13 3.262 2.8 3.778l0.93-1.57c-0.02 0.097-0.03 0.183-0.03 0.261 0.01 0.969 1.46 0.469 1.9 0.996 0.04-4e-3 0.08-4e-3 0.11-4e-3 1.01 0 0.5 1.528 1.45 1.579 0.47-0.438 0.25-1.579 1.16-1.575h0.08l2.18 2.832c0.78-0.066 1.54-0.765 2.11-0.765 0.14 0 0.26 0.039 0.38 0.136 0.84 1.043 1.36 2.403 2.17 3.465 0.7-1.187 2.45-1.3 2.81-2.836 0.04-4e-3 0.09-7e-3 0.13-7e-3 0.44 0 0.64 0.253 0.83 0.503 0.19 0.254 0.39 0.504 0.83 0.504 0.11 0 0.24-0.015 0.38-0.05 0.82-1.696 2.63-2.387 3.12-4.411 2.2-0.191 2.3-2.496 3.73-3.464l0.94-0.633h0.93l1.87-1.574c0.07 0 0.14 3e-3 0.2 3e-3 2.11 0 2.6-1.644 4.16-2.214 2.49-5.774 4.56-11.977 6.84-17.957 0.63-0.395 1.55-0.5 1.55-1.528v-0.051c0.03 0 0.05 4e-3 0.08 4e-3 1.18 0 2.26-1.293 3.97-1.582 1.18-0.894 1.75-2.429 3.42-2.832 0.94 0.168 1.19 1.145 1.89 1.145 0.17 0 0.37-0.059 0.6-0.195 0.42 0.949 1.46 1.25 2.81 1.257 1.45-0.308 1.87-1.668 2.49-2.84 0.79-1.085 1.62-2.128 2.49-3.144 2.69-0.938 4.83-2.449 7.77-3.152 0.04-4e-3 0.08-4e-3 0.12-4e-3 0.41 0 0.73 0.062 1.01 0.125 0.28 0.062 0.53 0.125 0.79 0.125s0.54-0.063 0.88-0.246c1.01 0.562 1.07 2.07 2.49 2.207 0.22-0.039 0.41-0.055 0.59-0.055 0.86 0 1.37 0.355 2.22 0.363 0.89 0.453 1.08 1.614 2.42 1.614 0.12 0 0.25-0.012 0.38-0.032 1.34 1.797 3.05 3.203 5.6 3.782 2.07-0.43 3.37-1.622 5.29-2.208l1.25 0.313c0.25 0.492 0.51 0.973 1.24 0.973 0.1 0 0.2-8e-3 0.31-0.028 1.21-0.445 1.77-1.57 2.49-2.515 0.04-4e-3 0.08-8e-3 0.12-8e-3 1.2 4e-3 0.94 1.492 2.06 1.578 0.28-0.977 1.03-1.477 1.64-2.117v-306.36"/>
  </clipPath>
 </defs>
 <g transform="translate(89.583 -110.68)">
  <path d="m206.79 125.67c-0.29144-0.14434-0.36059-0.47379-0.62486-0.64034-1.1287-0.0701-1.6893 0.33047-2.2994 0.69081-0.51372-0.17886-1.0571-0.0828-1.4596 0.11587-0.38775-0.0836-0.81503-0.13323-0.97556-0.40374-0.20993 0.0182-0.24945 0.17744-0.5557 0.11608-0.19759-0.29817-0.368-0.61753-0.69648-0.80669l-0.55571 0.0575c-0.24944-0.0149-0.25685 0.17179-0.48901 0.17179l-0.34577-0.3446c-0.11361 0.0474-0.22969 0.0331-0.34824 0.019-0.13584-0.0149-0.27415-0.0307-0.41987 0.0379-0.1309-0.35186-0.41492-0.57654-0.5557-0.92195l-0.34824-0.40294-0.41739-0.28787c-0.15807 0.15706-0.15807 0.44392-0.4174 0.51902-0.45444-0.0844-0.87183-0.19965-0.97309-0.57736-0.30132 0.0206-0.3112 0.28162-0.69895 0.23115-0.6545-0.12698-0.71624-0.75157-1.2497-0.97868-0.0914-0.25234-0.30131-0.40536-0.41739-0.63408-0.17535-0.1837-0.20252-0.48571-0.41739-0.63388-0.42975-0.067-0.45691 0.19945-0.76811 0.23094-0.28649-0.33753-0.92123-0.39022-1.3213-0.63388-0.53595 0.15222-0.58534 0.70575-1.0447 0.92175-0.32601 0.0198-0.45444-0.12455-0.69648-0.1726l-0.5557-0.0583-0.55571 0.28767c-0.29637-0.0228-0.3433-0.25375-0.62732-0.28767l-0.20746 0.23094-0.28156 0.17281-0.41492 0.46127-0.55818-0.34621c-0.2445 0.22085-0.31366 0.58503-0.62732 0.74915-0.37047 0.06-0.66437 8e-3 -0.83479-0.23114-0.10867-0.0906-0.14819-0.0269-0.2124 0.0371-0.0445 0.0456-0.10126 0.0931-0.20499 0.0789-0.14819-0.20268-0.38282-0.33611-0.62733-0.46067-0.13337-0.0874-0.20005 5e-3 -0.28649 0.0979-0.0667 0.07-0.14325 0.1403-0.26921 0.13162l-0.55817-0.11507c-0.24451-0.0268-0.24451-0.2588-0.55324-0.23033-0.14571-0.11204-0.46185-0.0804-0.48901-0.28868h-0.55571c-0.14818-0.16554-0.38281-0.26102-0.48901-0.46047l-0.20993-0.28787c-0.22229 0.0505-0.14325-0.14979-0.27662-0.1718-0.49643 0.0299-0.53841 0.43847-0.76563 0.69081-0.3359 0.0291-0.29391 0.37205-0.62486 0.40294l-0.62733-0.23034c-0.25191-0.34924-0.38034-0.79961-0.7681-1.037-0.24204 0.18149-0.24698 0.56081-0.48655 0.74915-0.33589 0.50872-0.7681 0.93851-1.0422 1.4967-0.30625-0.0725-0.69895-0.0953-0.83726 0.11608h-0.62485c-0.25933 0.0741-0.32601 0.30584-0.48655 0.46128-0.26921 0.0662-0.3927 0.24992-0.62733 0.34459-1.1954-0.0285-1.5634 0.62682-2.576 0.74915-0.33836-8e-3 -0.40258-0.24204-0.69401-0.28787-0.30873-0.0141-0.50878-0.11829-0.83726-0.11506-0.28403-0.22408-0.79527-0.26345-1.0447-0.51902-0.30378-0.18834-0.59028-0.39264-0.9731-0.518-0.59028-0.41485-1.1855-0.82324-1.7387-1.2672-0.24451-0.452-0.64461-0.77358-0.90641-1.2098-0.26427-0.14575-0.61004-0.22468-0.76563-0.46047l-0.62486-0.1734c-0.22475-0.31472-0.35812-0.70434-0.62732-0.97868-0.2618-0.0434-0.15313 0.21923-0.34824 0.23033-0.25192-0.0402-0.32108-0.23356-0.62733-0.23033-0.23957-0.0456-0.2939 0.064-0.41739 0.11507l-0.34824-0.17341-0.55571 0.17341c-0.31119-0.0497-0.36305-0.31452-0.69648-0.34601-0.46185 0.041-0.63967 0.31532-0.83478 0.57634l-0.34824-0.1726c-0.11213 0.17583-0.24427 0.33349-0.55595 0.3454l-0.48704 0.34601-0.34923 0.40294-0.48729 0.1728-0.34725 0.28787c-0.27613 0.13707-0.51915 0.302-0.69772 0.51801-0.27785 0.0388-0.43888 0.17421-0.6945 0.23114-0.21216 0.14979-0.40801 0.31613-0.48729 0.57554l-0.55768 0.1728-0.27686 0.46128c-0.33095-0.0157-0.3927-0.25153-0.62708-0.34621-0.31342 0.0285-0.52088-0.0285-0.76687-0.0567l-0.48432-0.23114c-0.19117-0.0355-0.17363-0.24043-0.41962-0.23013-0.38702-0.0513-0.51619 0.11102-0.83454 0.11506-0.3475-0.11506-0.44185-0.44089-0.90493-0.46047-0.24426-0.10962-0.34923-6e-3 -0.41789 0.1726-0.40035-0.19945-0.74464-0.11345-1.2542-0.1726-0.39072-0.0789-0.56632-0.33834-1.0437-0.34621-0.36973 0.0969-0.50186 0.39022-0.76415 0.57554-0.11979 0.0252-0.2124 4e-3 -0.29144-0.0174-0.10126-0.0266-0.18029-0.0543-0.26624 0.0174l-0.34725 0.23114-0.55669-0.3454c-0.25562 0.0575-0.35516 0.24366-0.62708 0.28787-0.31465-0.0111-0.35787 0.20268-0.55768 0.28787-0.24302 0.0614-0.18128-0.22408-0.34725-0.28787l-0.41789-0.0575-0.27686-0.28787c-0.34231 0.23497-0.57398 0.56382-0.69648 0.97928-0.34725-0.0583-0.51223-0.26809-0.90493-0.28848-0.44086 0.14818-0.86541-0.0371-1.045 0.28848-0.23808-0.0141-0.0598-0.37367-0.34725-0.34601l-0.20944-0.40314c-0.13114-4e-3 -0.16473 0.0735-0.19857 0.14999-0.0415 0.0915-0.082 0.1829-0.28847 0.13788-0.32601 0.0591-0.39566-0.0947-0.55669-0.1726-0.0551-0.0923-0.1593-0.0648-0.25661-0.0371-0.11089 0.0323-0.21413 0.064-0.23167-0.0781-0.31045 0.0678-0.33465 0.37387-0.62411 0.46067-0.16893 0.16877-0.45642 0.23882-0.76687 0.28848-0.37936-0.11043-0.35219-0.55434-0.55669-0.80749-0.21438-0.0117-0.30008 0.0822-0.38702 0.17583-0.0946 0.10255-0.18893 0.2051-0.44752 0.17038-0.61078-0.0339-0.71871-0.48025-1.2552-0.57554-0.49395 0.12698-0.92147 0.31068-1.4606 0.40294-0.33589 0.0275-0.20079-0.33289-0.48729-0.3454-0.50754 0.0204-0.62312 0.3674-0.76514 0.6908l-0.20746-0.1728-0.13979-0.0575-0.13979-0.23034c-0.10324-0.10013-0.19314-0.0717-0.41789-0.1726-0.31835 0.0236-0.36849 0.27132-0.55669 0.40294-0.21882 0.0797-0.23142 0.0127-0.48704 0-0.1062 0.21923-0.27983 0.38254-0.3475 0.63327-0.42431 0.0339-0.7476 0.14979-1.1141 0.23013-0.24796 0.064-0.30872 0.28242-0.41789 0.46148-0.22376-0.10335-0.23833-0.37931-0.55669-0.40314-0.30082-0.0583-0.38578 0.0648-0.55743 0.11447-0.10521-0.2366-0.37639-0.34076-0.4169-0.63247-0.19091-0.16796-0.22376-0.46834-0.55767-0.51881l-0.41666 0.23094c-0.0763-0.0812-0.11287 0.0103-0.1719 0.10255-0.0511 0.0797-0.11953 0.15847-0.24599 0.12698-0.17733-0.61894-0.78144-0.88864-0.90394-1.5542-0.3838 0.0456-0.56731 0.2586-0.83627 0.40213-0.27612 2e-3 -0.49025 0.0551-0.62535 0.17341-0.12917 0.0198-0.20351-5e-3 -0.27884-0.0291-0.0741-0.0244-0.14942-0.0497-0.27884-0.0293-0.39072 0.1183-0.817 0.20753-0.97433 0.51902-0.20746-0.22873-0.44752-2e-3 -0.69648 0.0575l-0.34725 0.0575h-0.3475c-0.17362 0.20268-0.23636 0.49681-0.41665 0.69081-0.25859 3e-3 -0.40628-0.0876-0.55768-0.1728-0.44678 0.41807-0.79601 0.91549-1.4616 1.1521-0.20252 0.35187-0.44678 0.6688-0.62708 1.037-0.25562 0.28706-0.25858 0.78549-0.62708 0.97948-0.15139 0.11507-0.23833 0.044-0.33762-0.0276-0.0608-0.0442-0.12744-0.0884-0.21709-0.0884-0.083-0.0961-0.18919-0.0598-0.31267-0.0228-0.0946 0.0285-0.20055 0.0567-0.31441 0.0228-0.23833 0.1294-0.28649 0.41646-0.41789 0.63408-0.082 0.24043-0.35886 0.31775-0.55669 0.46047-0.49198 0.023-0.74266-0.15363-1.0437-0.28787-0.40628 0.0505-0.35318 0.47642-0.76785 0.51901-0.49396 0.0252-0.6582-0.22165-1.1114-0.23114-0.57892 0.06-0.71105 0.48813-1.2544 0.57655-0.30873 6e-3 -0.21512-0.32017-0.41666-0.40294-0.29909-0.0789-0.45913-0.27455-0.90493-0.23114-0.13213-0.19784-0.40232-0.28081-0.48729-0.51801-0.25858 0.0166-0.18819 0.30443-0.48704 0.28767-0.16226-0.17422-0.28476-0.37851-0.55669-0.46047l-0.34848 0.1728-0.2786 0.0583c-0.42752-0.10719-0.71994-0.32642-1.183-0.40293-0.56805 0.10315-0.95507 0.36115-1.2542 0.6908-0.37516-0.0434-0.40702 0.19864-0.62412 0.28767-0.22969 2e-3 -0.34725 0.0979-0.62708 0.0569-0.31835 0.0252-0.33292 0.30119-0.55767 0.40294-0.1514-0.067-0.24698-0.0442-0.37344-0.0222-0.0694 0.0127-0.14843 0.0252-0.25266 0.0222-0.65598-0.12698-1.1346-0.40375-1.7395-0.57574-0.19289-0.18613-0.37812-0.3769-0.55768-0.57494-0.13683-0.21277-0.2287-0.46289-0.55669-0.51881-0.29909 8.1e-4 -0.53545 0.0559-0.62412 0.23115-0.27489-0.13102-0.30008 0.13565-0.55768 0.17179-0.37615-0.0725-0.50161-0.35247-0.76687-0.51801-0.38899-0.0537-0.63498-0.29816-0.90394-0.28787 0.0037-0.19642-0.20573-0.21519-0.34849-0.28787-0.51026-1.0946-0.97334-2.2277-1.531-3.2834-0.35985-0.10659-0.46308-0.42272-0.97433-0.40294l-0.41789-0.28787h-0.20919l-0.20746-0.11526c-0.32132-0.17725-0.34552-0.59916-0.8375-0.63388-0.10793-0.37064-0.51322-0.49681-0.69352-0.80669-0.16399-0.0323-0.21808 0.0252-0.27217 0.0828-0.04717 0.0497-0.09558 0.10013-0.21611 0.0898-0.07903-0.28-0.47173-0.30039-0.62609-0.51801-0.18128 0.19481-0.30008 0.44311-0.48828 0.63327l-0.55644-0.11526-0.48729 0.51901c-0.22475 0.0109-0.16893-0.2051-0.27686-0.28787-0.22006 9e-3 -0.0899 0.30987-0.35022 0.28787-0.10324 0.10396-0.47469-0.0111-0.41789 0.23013l-0.20722-0.28787c-0.37343 0.0939-0.49396 0.39588-0.62733 0.69081-0.47272 0.0309-0.50161 0.42979-0.97433 0.46047-0.29909 0.0168-0.46012-0.0795-0.62708-0.1726-0.39541 2e-3 -0.17857-0.50307-0.55669-0.518-0.46308-0.0396-0.46778 0.3028-0.6945 0.46127l-0.21043 0.3446-0.34626 0.1726c-0.23932 0.0947-0.21043-7e-3 -0.34824-0.11507-0.25587 0.0402-0.3475 0.25073-0.4863 0.23034-0.10126 0.0858-0.19017 0.0844-0.30576 0.0828-0.08694-2e-3 -0.1882-3e-3 -0.32132 0.0331-0.24599-0.0458-0.37911-0.18694-0.48828-0.34622-0.3927-0.0174-0.48432 0.21379-0.83454 0.23034l-0.34923 0.0583-0.20746-0.28868c-0.16399 0.019-0.26032 0.0914-0.48704 0.0575-0.52384-0.54566-1.3265-0.86038-1.9489-1.3239-0.79576-0.30281-1.3265-0.82344-2.0887-1.1529-0.81528-0.1508-1.6063-0.32098-2.3665-0.51821-0.12917-0.0149-0.21216 8e-3 -0.29514 0.0315-0.09064 0.0252-0.18153 0.0499-0.33095 0.026-0.42752-0.0874-0.77181-0.24527-1.3218-0.23013-0.3307-0.14979-0.71673-0.25153-1.2522-0.23114-0.22376-0.1617-0.59818-0.19703-0.90691-0.28787-1.0208 0.12778-1.9998 0.0466-2.7128-0.34541-0.24402 0.0285-0.45345 0.0852-0.76514 0.0586-0.15041 3e-3 -0.23636-0.045-0.32231-0.0931-0.10694-0.0608-0.21413-0.12153-0.44456-0.0797-0.20277-0.10255-0.53273-0.0977-0.76415-0.17341-0.27316-0.0238-0.48729 0-0.70142 0.0244-0.15436 0.0165-0.30774 0.0339-0.48334 0.0339-0.5268-0.0836-0.97631-0.22953-1.6701-0.17442-1.0109-0.37286-1.9101-0.83737-2.9232-1.2088-0.49396 0.1191-1.0013-0.0575-1.4616-0.0575l-0.07039 0.0575c-0.45518-0.0252-0.80169-0.0426-1.3226 0.0575-0.48334-0.0606-0.77181-0.28222-1.1828-0.40294-0.27217-0.0361-0.44678 7e-3 -0.6214 0.0513-0.14572 0.0363-0.29144 0.0733-0.49198 0.0632-0.68882-0.10093-1.3208-0.25153-1.8785-0.46067-0.61918-8.1e-4 -1.5224-0.12617-2.1591-0.28686-0.33762-0.0355-0.35688-0.0355-0.69549 0-0.45345-0.29736-1.1731-0.37306-1.7405-0.57735-0.2739-0.17503-0.54607-0.35247-0.83454-0.51801-0.24994 0.0347-0.33663-0.0662-0.48729-0.11446-0.30675-4e-3 -0.57497 0.023-0.76588 0.11446-0.35886-0.10578-0.5557-0.34621-1.044-0.3454-0.63474-7e-3 -0.88838 0.30038-1.3216 0.46047-0.4621 0.13646-1.0795 0.14353-1.6017 0.23114-1.2781-0.17522-2.6674 0.0953-3.4103-0.51901-0.5026 0.0339-0.9321-0.0678-1.3218-0.16957-0.34725-0.0906-0.66462-0.18048-0.97433-0.17583-0.4206-0.13243-0.66289-0.41243-1.045-0.57635-0.76489-0.17361-1.6399-0.25638-2.1571-0.63408-0.47173-0.0513-0.90789-0.13081-1.3226-0.22933-1.3584-0.0333-2.3695-0.15544-3.7578-0.0585-0.27588 3e-3 -0.4043 0.12778-0.62708 0.17442-0.22969-3e-3 -0.34651-0.0979-0.62609-0.0583-0.13707-0.0206-0.20474 0.0174-0.27118 0.0543-0.05779 0.0323-0.11485 0.0648-0.21611 0.0608-1.3942-2e-3 -2.4419 0.0804-3.4809 0.11507-0.54212 0.14757-0.90888 0.43766-1.3912 0.63408-0.26032-0.16331-0.67623-0.12233-1.0497-0.0811-0.24204 0.0258-0.46778 0.0527-0.62115 0.0228-0.40332-0.0497-0.55373-0.30826-0.97458-0.3446-0.22944-0.17583-0.47642-0.3351-0.90493-0.34621-0.20154-0.27515-0.57966-0.40293-0.90493-0.57574-0.71278 0.0719-1.0437-0.1734-1.531-0.28847-0.5026 5e-3 -0.78712 0.19319-1.3218 0.17341-0.35293 4e-3 -0.4495-0.2043-0.76588-0.23095-0.24994-0.0246-0.44184 0-0.63474 0.0236-0.15066 0.019-0.30107 0.0378-0.47963 0.0339-0.43691 0.18612-0.69549 0.20187-1.1828 0.28847-0.39072 0.0246-0.78243-0.0299-1.1692-0.0836-0.3349-0.0472-0.66487-0.0937-0.98791-0.0898-0.45938 5e-3 -0.97532 0.12536-1.3922 0.23114-0.32033 0.0803-0.66561 0.1829-0.90493 0.3454-0.22277-0.0537-0.40998-9e-3 -0.57398 0.0361-0.17758 0.048-0.32898 0.0971-0.47 0.0214-0.54113 0.32017-1.4056 0.37205-1.8099 0.80587h-0.34725c-0.23735 0.11204-0.42554 0.26264-0.62708 0.40374-0.59423 0.0836-1.0506 0.28222-1.4616 0.51801-0.82096 0.0686-1.6343 0.14595-2.1571 0.46128-0.41097-0.1403-0.65425-0.4203-1.1828-0.46128-0.50952 0.0592-0.9484 0.17664-1.3932 0.28787-0.55373-0.15464-0.82886-0.54324-1.3218-0.74834-0.6009-0.0355-1.0892-0.0545-1.6014 0-0.54409 0.14434-0.8827 0.45825-1.3218 0.69161-0.40035 0.26324-0.92691 0.42272-1.392 0.63328-0.35022 0.0606-0.77675 0.0575-1.202 0.0551-0.43913-3e-3 -0.87801-5e-3 -1.2349 0.0608-0.36578-0.10174-0.7034-0.22549-1.1134-0.28948-1.0092 0.29816-1.8998 0.69403-2.7148 1.1521-0.39467 0.0828-0.75452 0.25557-1.1124 0.40375-0.98223 0.40616-2.0724 0.79638-3.0633 1.2674-0.55471 0.13626-1.1944 0.20187-1.8089 0.28767-0.63004 0.2477-1.2784 0.47783-1.8099 0.80668-0.26328-0.0228-0.45246 0.016-0.64165 0.0545-0.16399 0.0339-0.32898 0.067-0.54212 0.0608-0.33194-0.0323-0.66857-0.06-0.90394-0.1728-0.34552 0.14757-0.87035 6e-3 -1.2532 0-0.47864-0.31371-1.1482-0.47077-1.8101-0.63307-1.0205 0.0188-1.5858 0.41464-2.436 0.57473-0.28353 0.13101-0.61942 0.21842-0.83454 0.40374-0.32107 0.0236-0.53051 0.13727-0.83627 0.17361-0.59621 0.25375-1.121 0.56847-1.5313 0.97848-0.8874 0.3028-1.6333 0.72229-2.7148 0.86421-0.59324-0.0274-1.0679-0.15282-1.7385-0.11507-0.65499 0.11124-1.1645 0.34298-1.8108 0.46047-0.32898 0.15-0.67154 0.28949-0.97334 0.46148-1.2621 0.28061-2.3868 0.67406-3.2725 1.2664-0.56064 0.18855-0.87603 0.57957-1.3218 0.86421-0.4863 0.25073-0.81429 0.63166-1.2522 0.92196-0.80367 0.0266-1.204 0.38638-1.8108 0.57553-0.11287 4e-3 -0.23438 2e-3 -0.35614-8e-4 -0.3307-7e-3 -0.66067-0.0133-0.82664 0.11607-0.16301 0.0291-0.22105-0.0285-0.27884-0.086-0.05804-0.0575-0.11583-0.11527-0.27785-0.0868-0.8096 0.13647-1.6034 0.28625-2.1581 0.63327-0.34157 0.0244-0.64832 0.0779-0.97458 0.11507-0.33762-0.0781-0.22574-0.37851-0.69549-0.22953-0.20647-0.32945-0.50754-0.57877-0.90394-0.74915-0.07533-0.41868-0.3638-0.65992-0.62708-0.92175-0.24525 0.0654-0.57324 0.0632-0.83454 0.11507-0.30872 6e-3 -0.21709-0.32017-0.41789-0.40294l-0.41863-0.40293c-0.11781-0.082-0.20845-0.0339-0.3233 0.0141-0.09731 0.0412-0.21117 0.0814-0.3722 0.0426-0.37936-0.16634-0.65128-0.42029-0.97458-0.63307-0.38776 0.0244-0.48803 0.28767-0.83553 0.34621l-0.41764-0.0577c-0.22673 0.0995-0.52194 0.38578-0.83452 0.22953-0.21996 0.10578-0.31258 0.31774-0.41774 0.51881-0.55281 0.0238-0.8789 0.23356-1.1838 0.46148-0.31161-0.0293-0.52098 0.0283-0.766 0.0567-0.62518 0.28848-0.95223 0.82405-1.67 1.037-0.42256-0.0135-0.73417-0.12233-1.1133-0.1728-0.26627 0.0876-0.45439 0.23902-0.62708 0.40374-0.30198-0.13323-0.36662-0.46531-0.90399-0.40374-0.41001-0.0711-0.35214 0.24689-0.55763 0.3454-0.31934-0.0363-0.40808-0.39345-0.76507-0.22953-0.02507-0.21055-0.16207-0.32723-0.3473-0.40374-0.39363-0.14494-0.48529 0.0806-0.83644 0.11527-0.04535-0.19259-0.21514-0.28161-0.27785-0.46067l-0.41774-0.0583c-0.22384-0.50469-0.69174-0.80911-0.90399-1.3247-0.56921 0.10639-0.61263 0.64579-0.9744 0.92175-0.39072 0.0355-0.5644-0.10962-0.69655-0.28787-0.25083-0.0149-0.33574 0.10659-0.55667 0.11527-0.06367-0.23579-0.32801-0.30443-0.34829-0.57574-0.33186 0.16634-0.74286 0.26808-1.0439 0.46047-0.28077-0.20894-0.68692-0.31452-0.90496-0.57554l-0.34733-0.34621-0.4187-0.28787-0.48719 0.1728c-0.329-0.17825-0.52967-0.60642-1.1133-0.40293-0.17172-0.29898-0.46501-0.49681-0.55667-0.86442-0.274 7e-3 -0.21225 0.25093-0.48721 0.11607-0.02413-0.28787-0.4023-0.28322-0.41774-0.57735-0.15532-0.15847-0.27111-0.35166-0.34829-0.57473-0.26046-0.36054-0.48623-0.74915-0.62612-1.2098-0.4515-0.0489-0.72165 0.0545-1.0439 0.11527-0.46598-0.24851-0.73611-0.65851-0.9744-1.0954-0.52869-0.11911-0.82777-0.42817-1.0439-0.80588-0.35021 8.1e-4 -0.57114-0.10578-0.77856-0.22327v65.716h296.37v-56.615" fill="#4f66b9" fill-rule="evenodd"/>
  <path d="m206.79 137.72c-0.15066-0.1292-0.3359-0.23014-0.40505-0.42737-0.28403 0.0182-0.20746 0.33753-0.53841 0.31694-0.17783-0.19077-0.31614-0.41787-0.61498-0.50771-0.24204-0.0301-0.31366 0.0779-0.38282 0.19077l-0.30872 0.0632c-0.4742-0.1183-0.79527-0.35893-1.3065-0.44573-0.62979 0.11688-1.0521 0.40071-1.3831 0.76348-0.41739-0.0482-0.45444 0.22004-0.69154 0.31936-0.25439 2e-3 -0.38529 0.10558-0.69401 0.0622-0.35071 0.0276-0.36553 0.33208-0.61498 0.44553-0.16794-0.0749-0.27414-0.0497-0.41245-0.0244-0.0766 0.0143-0.16301 0.0277-0.27909 0.0244-0.72611-0.14192-1.2546-0.44695-1.919-0.6363-0.21487-0.20511-0.41986-0.41566-0.61498-0.63469-0.15312-0.23659-0.25685-0.51114-0.61497-0.57332-0.33343 1e-3 -0.59028 0.0622-0.69401 0.25376-0.30132-0.14333-0.32602 0.14999-0.61498 0.19177-0.41246-0.0814-0.55323-0.39122-0.84467-0.5717-0.42974-0.0592-0.70142-0.32966-1.0003-0.31855 7e-3 -0.21701-0.22475-0.2374-0.38282-0.31876-0.56311-1.2072-1.0744-2.4594-1.6893-3.625-0.39764-0.1189-0.51125-0.46754-1.0768-0.44634l-0.46185-0.31775h-0.22969l-0.23216-0.12778c-0.35318-0.19541-0.37788-0.66073-0.92123-0.69929-0.12102-0.40859-0.56805-0.54808-0.77057-0.89046-0.17783-0.0353-0.23957 0.0277-0.29885 0.0916-0.0519 0.0551-0.1062 0.11103-0.2371 0.10013-0.0889-0.31007-0.52112-0.33288-0.69401-0.57251-0.20005 0.21439-0.32848 0.48894-0.53594 0.69949-0.14572 0.10154-0.37788-0.11042-0.61498-0.12698l-0.53841 0.57171c-0.24698 0.0133-0.18524-0.22711-0.30626-0.31795-0.2445 0.0111-0.0988 0.34237-0.38528 0.31795-0.11608 0.11506-0.52607-0.0119-0.46185 0.25375l-0.22969-0.31694c-0.41246 0.10417-0.54583 0.43847-0.69154 0.76267-0.5236 0.0337-0.5557 0.47541-1.0768 0.50852-0.32848 0.019-0.50878-0.0882-0.69154-0.18996-0.43962 1e-3 -0.20005-0.55677-0.61498-0.57251-0.51371-0.0434-0.51865 0.33349-0.7681 0.50851-0.0296 0.16574-0.22969 0.19158-0.22969 0.38174-0.24451-0.0301-0.31613 0.0795-0.38529 0.19077-0.26426 0.10336-0.23216-8e-3 -0.38528-0.12697-0.28156 0.0434-0.38282 0.27676-0.53595 0.25395-0.11361 0.0947-0.20993 0.0931-0.33836 0.0906-0.0963-2e-3 -0.20746-2e-3 -0.35565 0.0372-0.27167-0.0505-0.41739-0.20591-0.53841-0.38174-0.43221-0.0196-0.53348 0.23498-0.92123 0.25395l-0.38529 0.0646-0.22969-0.31855c-0.18029 0.0206-0.28896 0.10012-0.53594 0.064-0.5804-0.6042-1.4671-0.95021-2.1537-1.4636-0.87924-0.3337-1.4621-0.90924-2.3068-1.272-0.899-0.16715-1.7733-0.3557-2.613-0.57251-0.14325-0.0166-0.23463 9e-3 -0.32601 0.0339-0.10126 0.0277-0.20006 0.0551-0.36553 0.0291-0.47173-0.0961-0.85208-0.2695-1.4596-0.25375-0.36305-0.16655-0.7928-0.27758-1.3831-0.25476-0.24697-0.17826-0.65943-0.21762-1.0003-0.31694-1.1287 0.13949-2.2105 0.0497-2.9958-0.38336-0.27168 0.0315-0.50384 0.0955-0.84714 0.0646-0.16547 4e-3 -0.25933-0.0497-0.35318-0.10316-0.11855-0.067-0.2371-0.13404-0.49148-0.0884-0.22476-0.11183-0.58856-0.10638-0.84615-0.18996-0.29909-0.0268-0.53545 0-0.77181 0.026-0.17066 0.019-0.34157 0.0378-0.53545 0.037-0.58188-0.0906-1.0786-0.25154-1.8437-0.18997-1.1161-0.41323-2.1099-0.92578-3.229-1.3366-0.54508 0.13162-1.1047-0.0632-1.613-0.0632l-0.0783 0.0632c-0.50062-0.0268-0.88467-0.0466-1.4586 0.0638-0.53545-0.067-0.85381-0.31149-1.3073-0.44553-0.30008-0.0402-0.49297 9e-3 -0.68586 0.0567-0.16128 0.0412-0.32132 0.0814-0.54409 0.0703-0.76045-0.11204-1.4569-0.27757-2.0744-0.50851-0.68314-8.1e-4 -1.6814-0.13889-2.3828-0.31876-0.37343-0.0378-0.39566-0.0378-0.77008 0-0.50161-0.32723-1.2947-0.41081-1.9217-0.63549-0.30107-0.194-0.60287-0.39042-0.92123-0.57251-0.27513 0.0379-0.37146-0.0741-0.53743-0.12698-0.33762-3e-3 -0.63671 0.0252-0.84713 0.12698-0.39541-0.11749-0.61251-0.38174-1.1529-0.38174-0.69944-7e-3 -0.981 0.33208-1.4596 0.50872-0.51026 0.15059-1.1904 0.15846-1.7674 0.25557-1.4135-0.194-2.9474 0.10557-3.7644-0.57251-0.55669 0.0377-1.0314-0.0749-1.4626-0.18775-0.38405-0.10012-0.73328-0.20025-1.0758-0.19399-0.46481-0.14656-0.73031-0.45664-1.1529-0.63631-0.84591-0.19157-1.8108-0.28322-2.3819-0.70029-0.52087-0.0567-1.0045-0.14515-1.4616-0.25476-1.4982-0.0361-2.6175-0.17018-4.1495-0.0622-0.3028 2e-3 -0.4458 0.13949-0.69179 0.18996-0.25266-2e-3 -0.38381-0.10719-0.69253-0.063-0.15164-0.023-0.22574 0.0188-0.29909 0.0598-0.0627 0.0363-0.12645 0.0719-0.23834 0.067-1.5389-1e-3 -2.6965 0.0892-3.8447 0.12698-0.59794 0.1617-1.0032 0.48348-1.5357 0.7003-0.28847-0.17967-0.74686-0.13486-1.1588-0.0898-0.26822 0.0291-0.51693 0.0583-0.68685 0.026-0.44382-0.0561-0.61078-0.34156-1.0756-0.38174-0.25389-0.19319-0.52582-0.36983-0.99853-0.38174-0.22204-0.30341-0.64165-0.44553-0.99854-0.63549-0.78934 0.0797-1.1529-0.19158-1.6903-0.31856-0.55768 5e-3 -0.87109 0.21298-1.4616 0.18997-0.38874 6e-3 -0.49791-0.22469-0.84417-0.25376-0.27785-0.0268-0.48902 0-0.70142 0.0267-0.16597 0.0206-0.33194 0.0418-0.52854 0.0371-0.48531 0.20511-0.77008 0.22307-1.3082 0.31856-0.43048 0.0268-0.8627-0.0331-1.29-0.0931-0.36948-0.0513-0.73526-0.10336-1.0931-0.0985-0.50655 6e-3 -1.0746 0.13788-1.536 0.25476-0.35392 0.0882-0.73501 0.20248-0.99854 0.38074-0.24599-0.0592-0.45246-9e-3 -0.63474 0.041-0.19585 0.0537-0.36355 0.10739-0.51989 0.0238-0.59621 0.35247-1.5515 0.41081-1.9971 0.89025-0.08694 0.0692-0.11978 0.044-0.18252 0.0196-0.04322-0.018-0.10126-0.0353-0.20154-0.0196-0.26229 0.12133-0.46975 0.28929-0.69278 0.44554-0.65795 0.0923-1.1596 0.31229-1.613 0.57251-0.9069 0.0757-1.8059 0.16089-2.3828 0.50851-0.45543-0.15443-0.72068-0.4637-1.3073-0.50851-0.56262 0.0646-1.0469 0.19399-1.536 0.31694-0.61251-0.17119-0.91753-0.59936-1.4626-0.82728-0.66264-0.0378-1.2001-0.0592-1.7674 0-0.60115 0.16009-0.97433 0.50791-1.4596 0.76429-0.44086 0.29171-1.0247 0.46754-1.5389 0.70009-0.38578 0.0662-0.85677 0.064-1.3275 0.0608-0.48432-3e-3 -0.96766-6e-3 -1.3611 0.0662-0.40233-0.11123-0.77675-0.2483-1.2302-0.31855-1.1144 0.32804-2.0983 0.7657-2.9986 1.2728-0.43592 0.0914-0.83429 0.28141-1.229 0.44473-1.0835 0.44795-2.2875 0.87915-3.3824 1.3996-0.61177 0.14999-1.3169 0.22408-1.9961 0.31875-0.69673 0.27273-1.4125 0.5283-2 0.88945-0.28847-0.0236-0.49791 0.0182-0.70636 0.0608-0.18227 0.0369-0.36454 0.0741-0.59991 0.067-0.36676-0.0355-0.73995-0.0662-0.99952-0.19097-0.3801 0.1625-0.96001 7e-3 -1.3836 0-0.52755-0.34682-1.2675-0.52043-1.9978-0.69949-1.126 0.0214-1.7511 0.45825-2.6908 0.6357-0.31268 0.14433-0.68216 0.24043-0.92222 0.44553-0.35219 0.026-0.58485 0.15221-0.92148 0.19077-0.65993 0.28161-1.2396 0.62863-1.6921 1.082-0.98026 0.33269-1.8022 0.7972-2.9966 0.95405-0.65598-0.0307-1.1808-0.16876-1.9217-0.12859-0.72167 0.12476-1.2843 0.37932-1.999 0.51033-0.36281 0.16473-0.73995 0.31936-1.0758 0.50771-1.392 0.31088-2.6358 0.74451-3.6131 1.3998-0.61918 0.20813-0.96766 0.64034-1.4606 0.95345-0.53644 0.27757-0.89703 0.69948-1.3823 1.018-0.88665 0.0299-1.3275 0.42736-1.9981 0.6363-0.12645 5e-3 -0.26056 2e-3 -0.39467-8.1e-4 -0.36454-8e-3 -0.72933-0.0149-0.9116 0.12779-0.18054 0.0323-0.24426-0.0315-0.30774-0.0955-0.06372-0.063-0.12843-0.12778-0.30774-0.0945-0.89456 0.14978-1.7703 0.31532-2.3831 0.69928-0.37714 0.0268-0.71673 0.086-1.0756 0.12698-0.37343-0.086-0.24895-0.41868-0.76909-0.25456-0.22673-0.36277-0.55941-0.63893-0.99854-0.82647-0.082-0.46208-0.40035-0.72936-0.69253-1.018-0.27118 0.0725-0.63202 0.07-0.92246 0.12698-0.34058 7e-3 -0.23908-0.35247-0.46111-0.44553-0.09459-0.19643-0.25266-0.34076-0.46012-0.44412-0.13016-0.0915-0.23167-0.0377-0.35886 0.0151-0.10719 0.0448-0.23364 0.0898-0.40998 0.0472-0.41789-0.18371-0.7197-0.46532-1.0768-0.69949-0.42826 0.0268-0.53817 0.31714-0.92222 0.38255l-0.46012-0.064c-0.25093 0.11043-0.57694 0.42595-0.92345 0.25396-0.24303 0.11668-0.34429 0.35085-0.46012 0.57251-0.61078 0.026-0.97063 0.25779-1.3073 0.50952-0.34429-0.0309-0.57694 0.0323-0.84516 0.0638-0.69179 0.31774-1.0534 0.91004-1.8454 1.1442-0.46802-0.0157-0.81058-0.13405-1.2282-0.18996-0.29514 0.0953-0.50161 0.26243-0.69278 0.44553-0.33466-0.14838-0.40504-0.51417-0.99952-0.44553-0.45246-0.0789-0.38874 0.27192-0.6135 0.38073-0.35417-0.0402-0.45246-0.43443-0.84615-0.25396-0.028897-0.23175-0.17931-0.36115-0.38479-0.44553-0.4332-0.16069-0.53545 0.09-0.92247 0.12698-0.050137-0.21278-0.23833-0.31068-0.30675-0.50852-0.032848-0.0814-0.11386-0.0537-0.20351-0.026-0.092617 0.0291-0.19487 0.0575-0.2576-0.0372-0.24797-0.55817-0.76514-0.89348-0.99952-1.4636-0.62708 0.11749-0.67623 0.71301-1.0758 1.018-0.43221 0.0388-0.62214-0.12132-0.76983-0.31855-0.27588-0.0166-0.37047 0.11749-0.6135 0.12778-0.071377-0.26021-0.36281-0.33591-0.38504-0.63569-0.36652 0.1839-0.81997 0.29655-1.1529 0.50791-0.30971-0.23034-0.75822-0.34702-0.99952-0.6355l-0.38282-0.38174-0.4621-0.31774c-0.24426-0.0993-0.39072 0.0448-0.53841 0.18996-0.3638-0.19622-0.5846-0.66941-1.2302-0.44473-0.18894-0.33046-0.51322-0.54969-0.6135-0.95405-0.30378 7e-3 -0.23537 0.27596-0.5394 0.12678-0.025933-0.31694-0.44283-0.31068-0.46012-0.63549-0.17264-0.17664-0.29909-0.38962-0.38479-0.6363-0.28847-0.39749-0.53644-0.82728-0.6908-1.336-0.50087-0.0527-0.79898 0.0608-1.1529 0.12698-0.5152-0.27354-0.81429-0.72613-1.0778-1.208-0.58163-0.13243-0.91357-0.47319-1.1529-0.89026-0.59028 2e-3 -0.84689-0.27455-1.228-0.44553h-0.99952c-0.40035-0.26264-0.66857-0.63489-0.99952-0.95425-0.24204 0.0309-0.20351-0.17099-0.38405-0.19158-0.24105 0.0307-0.3144-0.0789-0.38479-0.18996l-0.6908-0.38174-0.15436-0.19077c-0.13707-0.39587-0.33663-0.73825-0.46111-1.145-0.21907-0.26344-0.39566-0.56302-0.76909-0.69949-0.6782 0.0749-0.88641 0.53698-1.5367 0.6355l-0.53742-0.31775c-0.19017-0.14111-0.41665-0.24911-0.69278-0.31775-0.43394 0.14898-0.40702 0.68051-0.69154 0.95425-0.22006-0.17825-0.32231-0.45421-0.53841-0.6365h-0.61448l-0.6908 0.19097c-0.19388 0.0741-0.25859 0.25295-0.5394 0.25456-0.15239-0.23498-0.25093-0.51417-0.38405-0.76328-0.04322-0.324-0.35194-0.43059-0.61448-0.57251-0.49865 0.0331-0.55076 0.43443-0.84615 0.6355-0.72439-0.41788-1.062-1.1559-1.7674-1.5898-0.82392 0.31553-1.1084 1.0758-1.7674 1.5268-0.33095-0.0608-0.62906-0.4423-1.0768-0.38255-0.29415 0.0412-0.35886 0.12698-0.53718 0.38255l-0.5394 0.31775c-0.55175-0.0299-0.94346-0.19238-1.3833-0.31775l-0.46037 0.12779c-0.07138 7e-3 -0.14275-0.0315-0.21216-0.0711-0.11386-0.0622-0.22376-0.12536-0.32527 6e-3 -0.25834-0.37993-0.58732-0.7001-1.0003-0.95405-0.19388 0.32723-0.40727 0.63791-0.53743 1.0188-0.40529 0.23659-0.8133 0.47157-1.2302 0.69949-0.32799-0.21621-0.36553-0.67345-0.61547-0.95425-0.59127 0.23114-0.58065 0.95889-1.3063 1.0812-0.29909-7e-3 -0.28082-0.27697-0.30675-0.50952l-0.23068-0.50852c-0.04717-0.12233-0.11559-0.0632-0.18523-4e-3 -0.04149 0.0363-0.08373 0.0711-0.1225 0.0678l-0.22944-0.25557c-0.1351-0.16311-0.53743-0.10719-0.77008-0.18996-0.38677 0.61188-0.73106 1.2609-0.99854 1.9715-0.14745 5e-3 -0.18894-0.0765-0.23043-0.15868-0.04149-0.082-0.08397-0.16392-0.23167-0.15847-1.0766 0.29575-1.5194 1.1168-2.1514 1.7813h-0.30774l-0.15436-0.0646c-0.31045 0.16634-0.64733 0.31229-0.6908 0.70029-0.24871-0.0371-0.35787 0.0434-0.53718 0.063-0.12942 0.44492-0.40529 0.76731-0.61547 1.145-0.04841 0.23578-0.21611 0.37306-0.30798 0.57251-0.17165 0.13323-0.19388 0.39122-0.46111 0.44553-0.25365 0.16331-0.3107-0.26102-0.3838-0.44553-0.57126 0.12152-0.84417-0.0196-1.2302-0.19077-0.27489-0.366-0.51618-0.76026-0.84516-1.0812-0.35392-0.0228-0.44283-0.0779-0.76786 0-0.14671-0.34601-0.80861-0.26405-1.1539-0.44553-0.18128 0.0325-0.38208 0.019-0.60979 6e-3 -0.18622-0.0103-0.39171-0.0214-0.61942-6e-3 -0.44357-0.0345-0.32404-0.53618-0.76983-0.57171-0.83454-0.0345-1.064 0.43221-1.8437 0.44493-0.3559 0.1506-0.65301 0.34924-0.84516 0.6363-0.6251 0.0125-0.76588 0.42575-1.23 0.5717-0.16893-0.0119-0.29514 0.0125-0.4206 0.0363-0.14572 0.0275-0.29144 0.0543-0.50161 0.0275l-0.30774 0.25476-0.30798 0.25395c-0.13312 0.20894-0.40504 0.30039-0.53718 0.50933-0.61473 0.16957-1.1356 0.41727-1.7684 0.5717-0.28378 0.0624-0.36775 0.28948-0.53742 0.44553-0.23834 0.10094-0.45246 0.21924-0.61547 0.38174-0.26649 0.0575-0.41789 0.25618-0.61572 0.38174l-0.6135 0.38235c-1.0729 0.29897-2.187 0.56464-3.0746 1.0172-0.65128 0.0119-1.2485 0.0703-1.6913 0.25477l-0.53738-0.19077c-0.77566 0.324-1.8167 0.77276-2.9213 0.44472-0.50072 0.0109-0.49203 0.44069-0.84514 0.57251-1.1722 0.25618-2.7004 0.2909-3.7664-0.12698-0.40423 0.0472-0.50747 0.34299-1.0757 0.25457-0.45535-0.0267-0.77277-0.16716-0.99947-0.38154-0.53352 0.13162-0.92617-0.19945-1.4607-0.25477-0.43992-0.16553-0.68593-0.49196-0.99853-0.76328-0.54605-0.12072-0.99369-0.32259-1.5368-0.44472-0.18234-0.25315-0.46501-0.42191-0.61552-0.7003-0.19778-0.21761-0.49685-0.35246-0.61456-0.63549-0.60201 0.15847-0.78724 0.66315-1.7684 0.50852-0.17271-0.68455-0.42643-1.3003-0.61552-1.9721-0.18042-0.12557-0.48432-0.14999-0.76796-0.19097-0.34152-0.33269-0.71295-0.63954-1.3825-0.69949-0.29232 0.0331-0.36659 0.24769-0.46212 0.44553-0.4621 0.44412-0.7361 1.0449-1.3063 1.399-0.31453-0.0149-0.40519-0.216-0.69174-0.25476-0.31741 0.0727-0.4409 0.0458-0.61552-0.12698-0.26531 0.0781-0.46308 0.20995-0.61455 0.38174-0.29811 0.0497-0.50264 0.17826-0.69173 0.31775l-0.28557-0.0606v69.713h296.37v-61.846" fill="#374aa6" fill-rule="evenodd"/>
  <g transform="matrix(.24698 0 0 -.20187 -89.583 220.24)">
   <g clip-path="url(#clipPath725)">
    <g fill="#384ba7">
     <path d="m0 102.44h1200v1.5312h-1200z"/>
     <path d="m0 103.97h1200v1.5273h-1200z"/>
     <path d="m0 105.5h1200v1.5312h-1200z"/>
     <path d="m0 107.03h1200v1.5312h-1200z"/>
     <path d="m0 108.56h1200v1.5273h-1200z"/>
     <path d="m0 110.09h1200v1.5312h-1200z"/>
     <path d="m0 111.62h1200v1.5312h-1200z"/>
     <path d="m0 113.15h1200v1.5312h-1200z"/>
     <path d="m0 114.68h1200v1.5273h-1200z"/>
     <path d="m0 116.21h1200v1.5312h-1200z"/>
     <path d="m0 117.74h1200v1.5312h-1200z"/>
     <path d="m0 119.27h1200v1.5273h-1200z"/>
     <path d="m0 120.8h1200v1.5312h-1200z"/>
     <path d="m0 122.33h1200v1.5312h-1200z"/>
     <path d="m0 123.86h1200v1.5312h-1200z"/>
     <path d="m0 125.4h1200v1.5273h-1200z"/>
     <path d="m0 126.92h1200v1.5312h-1200z"/>
     <path d="m0 128.45h1200v1.5312h-1200z"/>
     <path d="m0 129.98h1200v1.5273h-1200z"/>
     <path d="m0 131.51h1200v1.5312h-1200z"/>
     <path d="m0 133.04h1200v1.5312h-1200z"/>
     <path d="m0 134.57h1200v1.5312h-1200z"/>
     <path d="m0 136.1h1200v1.5273h-1200z"/>
     <path d="m0 137.63h1200v1.5312h-1200z"/>
     <path d="m0 139.16h1200v1.5312h-1200z"/>
     <path d="m0 140.7h1200v1.5273h-1200z"/>
     <path d="m0 142.22h1200v1.5312h-1200z"/>
     <path d="m0 143.75h1200v1.5312h-1200z"/>
     <path d="m0 145.28h1200v1.5312h-1200z"/>
     <path d="m0 146.82h1200v1.5273h-1200z"/>
     <path d="m0 148.34h1200v1.5312h-1200z"/>
     <path d="m0 149.88h1200v1.5312h-1200z"/>
     <path d="m0 151.41h1200v1.5273h-1200z"/>
     <path d="m0 152.93h1200v1.5312h-1200z"/>
     <path d="m0 154.46h1200v1.5312h-1200z"/>
     <path d="m0 156h1200v1.5312h-1200z"/>
     <path d="m0 157.53h1200v1.5273h-1200z"/>
     <path d="m0 159.06h1200v1.5312h-1200z"/>
     <path d="m0 160.59h1200v1.5312h-1200z"/>
     <path d="m0 162.12h1200v1.5273h-1200z"/>
     <path d="m0 163.64h1200v1.5312h-1200z"/>
     <path d="m0 165.18h1200v1.5312h-1200z"/>
     <path d="m0 166.71h1200v1.5312h-1200z"/>
     <path d="m0 168.24h1200v1.5273h-1200z"/>
     <path d="m0 169.77h1200v1.5312h-1200z"/>
     <path d="m0 171.3h1200v1.5312h-1200z"/>
     <path d="m0 172.83h1200v1.5273h-1200z"/>
     <path d="m0 174.36h1200v1.5312h-1200z"/>
     <path d="m0 175.89h1200v1.5312h-1200z"/>
     <path d="m0 177.42h1200v1.5312h-1200z"/>
     <path d="m0 178.95h1200v1.5273h-1200z"/>
     <path d="m0 180.48h1200v1.5312h-1200z"/>
     <path d="m0 182.01h1200v1.5312h-1200z"/>
     <path d="m0 183.54h1200v1.5273h-1200z"/>
     <path d="m0 185.07h1200v1.5312h-1200z"/>
     <path d="m0 186.6h1200v1.5312h-1200z"/>
     <path d="m0 188.13h1200v1.5312h-1200z"/>
     <path d="m0 189.66h1200v1.5273h-1200z"/>
     <path d="m0 191.19h1200v1.5312h-1200z"/>
     <path d="m0 192.72h1200v1.5312h-1200z"/>
     <path d="m0 194.25h1200v1.5273h-1200z"/>
     <path d="m0 195.78h1200v1.5312h-1200z"/>
     <path d="m0 197.31h1200v1.5312h-1200z"/>
     <path d="m0 198.84h1200v1.5312h-1200z"/>
     <path d="m0 200.37h1200v1.5273h-1200z"/>
     <path d="m0 201.9h1200v1.5312h-1200z"/>
     <path d="m0 203.43h1200v1.5312h-1200z"/>
     <path d="m0 204.96h1200v1.5273h-1200z"/>
     <path d="m0 206.49h1200v1.5312h-1200z"/>
     <path d="m0 208.02h1200v1.5312h-1200z"/>
     <path d="m0 209.55h1200v1.5312h-1200z"/>
     <path d="m0 211.08h1200v1.5273h-1200z"/>
     <path d="m0 212.61h1200v1.5312h-1200z"/>
     <path d="m0 214.14h1200v1.5312h-1200z"/>
     <path d="m0 215.67h1200v1.5273h-1200z"/>
     <path d="m0 217.2h1200v1.5312h-1200z"/>
     <path d="m0 218.73h1200v1.5312h-1200z"/>
     <path d="m0 220.26h1200v1.5312h-1200z"/>
     <path d="m0 221.79h1200v1.5273h-1200z"/>
     <path d="m0 223.32h1200v1.5312h-1200z"/>
     <path d="m0 224.85h1200v1.5312h-1200z"/>
     <path d="m0 226.38h1200v1.5273h-1200z"/>
     <path d="m0 227.91h1200v1.5312h-1200z"/>
     <path d="m0 229.44h1200v1.5312h-1200z"/>
     <path d="m0 230.97h1200v1.5312h-1200z"/>
     <path d="m0 232.5h1200v1.5273h-1200z"/>
     <path d="m0 234.03h1200v1.5312h-1200z"/>
     <path d="m0 235.56h1200v1.5312h-1200z"/>
     <path d="m0 237.09h1200v1.5273h-1200z"/>
     <path d="m0 238.62h1200v1.5312h-1200z"/>
     <path d="m0 240.15h1200v1.5312h-1200z"/>
    </g>
    <g fill="#384ca7">
     <path d="m0 241.68h1200v1.5312h-1200z"/>
     <path d="m0 243.22h1200v1.5273h-1200z"/>
     <path d="m0 244.74h1200v1.5312h-1200z"/>
    </g>
    <g fill="#394ca7">
     <path d="m0 246.27h1200v1.5312h-1200z"/>
     <path d="m0 247.8h1200v1.5273h-1200z"/>
     <path d="m0 249.33h1200v1.5312h-1200z"/>
     <path d="m0 250.86h1200v1.5312h-1200z"/>
     <path d="m0 252.4h1200v1.5312h-1200z"/>
     <path d="m0 253.93h1200v1.5273h-1200z"/>
     <path d="m0 255.45h1200v1.5312h-1200z"/>
     <path d="m0 256.98h1200v1.5312h-1200z"/>
     <path d="m0 258.52h1200v1.5273h-1200z"/>
    </g>
    <path d="m0 260.04h1200v1.5312h-1200z" fill="#3a4ca8"/>
    <path d="m0 261.57h1200v1.5312h-1200z" fill="#3a4ca8"/>
    <g fill="#3a4da8">
     <path d="m0 263.1h1200v1.5312h-1200z"/>
     <path d="m0 264.64h1200v1.5273h-1200z"/>
     <path d="m0 266.16h1200v1.5312h-1200z"/>
     <path d="m0 267.7h1200v1.5312h-1200z"/>
     <path d="m0 269.23h1200v1.5273h-1200z"/>
     <path d="m0 270.75h1200v1.5312h-1200z"/>
     <path d="m0 272.28h1200v1.5312h-1200z"/>
     <path d="m0 273.82h1200v1.5312h-1200z"/>
     <path d="m0 275.35h1200v1.5273h-1200z"/>
    </g>
    <path d="m0 276.88h1200v1.5312h-1200z" fill="#3b4da8"/>
    <g fill="#3b4ea9">
     <path d="m0 278.41h1200v1.5312h-1200z"/>
     <path d="m0 279.94h1200v1.5273h-1200z"/>
     <path d="m0 281.46h1200v1.5312h-1200z"/>
     <path d="m0 283h1200v1.5312h-1200z"/>
     <path d="m0 284.53h1200v1.5312h-1200z"/>
     <path d="m0 286.06h1200v1.5273h-1200z"/>
     <path d="m0 287.59h1200v1.5312h-1200z"/>
     <path d="m0 289.12h1200v1.5312h-1200z"/>
     <path d="m0 290.65h1200v1.5273h-1200z"/>
    </g>
    <path d="m0 292.18h1200v1.5312h-1200z" fill="#3b4faa"/>
    <g fill="#3c4faa">
     <path d="m0 293.71h1200v1.5312h-1200z"/>
     <path d="m0 295.24h1200v1.5312h-1200z"/>
     <path d="m0 296.77h1200v1.5273h-1200z"/>
     <path d="m0 298.3h1200v1.5312h-1200z"/>
     <path d="m0 299.83h1200v1.5312h-1200z"/>
     <path d="m0 301.36h1200v1.5273h-1200z"/>
    </g>
    <g fill="#3d50aa">
     <path d="m0 302.89h1200v1.5312h-1200z"/>
     <path d="m0 304.42h1200v1.5312h-1200z"/>
     <path d="m0 305.95h1200v1.5312h-1200z"/>
     <path d="m0 307.48h1200v1.5273h-1200z"/>
    </g>
    <path d="m0 309.01h1200v1.5312h-1200z" fill="#3c50ab"/>
    <g fill="#3d51ab">
     <path d="m0 310.54h1200v1.5312h-1200z"/>
     <path d="m0 312.07h1200v1.5273h-1200z"/>
     <path d="m0 313.6h1200v1.5312h-1200z"/>
     <path d="m0 315.13h1200v1.5312h-1200z"/>
    </g>
    <path d="m0 316.66h1200v1.5312h-1200z" fill="#3e51ab"/>
    <path d="m0 318.19h1200v1.5273h-1200z" fill="#3e51ab"/>
    <g fill="#3f51ac">
     <path d="m0 319.72h1200v1.5312h-1200z"/>
     <path d="m0 321.25h1200v1.5312h-1200z"/>
     <path d="m0 322.78h1200v1.5273h-1200z"/>
     <path d="m0 324.31h1200v1.5312h-1200z"/>
    </g>
    <path d="m0 325.84h1200v1.5312h-1200z" fill="#3e52ac"/>
    <g fill="#3f52ac">
     <path d="m0 327.37h1200v1.5312h-1200z"/>
     <path d="m0 328.9h1200v1.5273h-1200z"/>
     <path d="m0 330.43h1200v1.5312h-1200z"/>
     <path d="m0 331.96h1200v1.5312h-1200z"/>
     <path d="m0 333.49h1200v1.5273h-1200z"/>
    </g>
    <path d="m0 335.02h1200v1.5312h-1200z" fill="#3f53ad"/>
    <g fill="#4053ad">
     <path d="m0 336.55h1200v1.5312h-1200z"/>
     <path d="m0 338.08h1200v1.5312h-1200z"/>
     <path d="m0 339.61h1200v1.5273h-1200z"/>
     <path d="m0 341.14h1200v1.5312h-1200z"/>
     <path d="m0 342.67h1200v1.5312h-1200z"/>
     <path d="m0 344.2h1200v1.5273h-1200z"/>
    </g>
    <path d="m0 345.73h1200v1.5312h-1200z" fill="#4154ae"/>
    <g fill="#4155ae">
     <path d="m0 347.26h1200v1.5312h-1200z"/>
     <path d="m0 348.79h1200v1.5312h-1200z"/>
     <path d="m0 350.32h1200v1.5273h-1200z"/>
     <path d="m0 351.85h1200v1.5312h-1200z"/>
    </g>
    <g fill="#4255ae">
     <path d="m0 353.38h1200v1.5312h-1200z"/>
     <path d="m0 354.91h1200v1.5273h-1200z"/>
     <path d="m0 356.44h1200v1.5312h-1200z"/>
    </g>
    <g fill="#4256af">
     <path d="m0 357.97h1200v1.5312h-1200z"/>
     <path d="m0 359.5h1200v1.5312h-1200z"/>
     <path d="m0 361.04h1200v1.5273h-1200z"/>
     <path d="m0 362.56h1200v1.5312h-1200z"/>
     <path d="m0 364.09h1200v1.5312h-1200z"/>
     <path d="m0 365.62h1200v1.5273h-1200z"/>
    </g>
    <path d="m0 367.15h1200v1.5312h-1200z" fill="#4357af"/>
    <path d="m0 368.68h1200v1.5312h-1200z" fill="#4357af"/>
    <path d="m0 370.22h1200v1.5312h-1200z" fill="#4457af"/>
    <path d="m0 371.75h1200v1.5273h-1200z" fill="#4457af"/>
    <path d="m0 373.27h1200v1.5312h-1200z" fill="#4457b0"/>
    <g fill="#4358b0">
     <path d="m0 374.8h1200v1.5312h-1200z"/>
     <path d="m0 376.34h1200v1.5273h-1200z"/>
     <path d="m0 377.86h1200v1.5312h-1200z"/>
    </g>
    <path d="m0 379.4h1200v1.5312h-1200z" fill="#4458b1"/>
    <path d="m0 380.93h1200v1.5312h-1200z" fill="#4459b1"/>
    <path d="m0 382.46h1200v1.5273h-1200z" fill="#4459b1"/>
    <g fill="#4559b1">
     <path d="m0 383.98h1200v1.5312h-1200z"/>
     <path d="m0 385.52h1200v1.5312h-1200z"/>
     <path d="m0 387.05h1200v1.5273h-1200z"/>
    </g>
    <path d="m0 388.57h1200v1.5312h-1200z" fill="#4659b1"/>
    <path d="m0 390.1h1200v1.5312h-1200z" fill="#4659b1"/>
    <g fill="#465ab2">
     <path d="m0 391.64h1200v1.5312h-1200z"/>
     <path d="m0 393.17h1200v1.5273h-1200z"/>
     <path d="m0 394.7h1200v1.5312h-1200z"/>
     <path d="m0 396.23h1200v1.5312h-1200z"/>
     <path d="m0 397.76h1200v1.5273h-1200z"/>
    </g>
    <path d="m0 399.28h1200v1.5312h-1200z" fill="#465bb2"/>
    <path d="m0 400.82h1200v1.5312h-1200z" fill="#475bb2"/>
    <g fill="#475cb3">
     <path d="m0 402.35h1200v1.5312h-1200z"/>
     <path d="m0 403.88h1200v1.5273h-1200z"/>
     <path d="m0 405.41h1200v1.5312h-1200z"/>
     <path d="m0 406.94h1200v1.5312h-1200z"/>
     <path d="m0 408.47h1200v1.5273h-1200z"/>
    </g>
    <path d="m0 410h1200v1.5312h-1200z" fill="#485cb3"/>
    <path d="m0 411.53h1200v1.5312h-1200z" fill="#485db4"/>
    <g fill="#495db4">
     <path d="m0 413.06h1200v1.5312h-1200z"/>
     <path d="m0 414.59h1200v1.5273h-1200z"/>
     <path d="m0 416.12h1200v1.5312h-1200z"/>
    </g>
    <g fill="#495eb4">
     <path d="m0 417.65h1200v1.5312h-1200z"/>
     <path d="m0 419.18h1200v1.5273h-1200z"/>
     <path d="m0 420.71h1200v1.5312h-1200z"/>
     <path d="m0 422.24h1200v1.5312h-1200z"/>
    </g>
    <path d="m0 423.77h1200v1.5312h-1200z" fill="#495fb5"/>
    <path d="m0 425.3h1200v1.5273h-1200z" fill="#495fb5"/>
    <path d="m0 426.83h1200v1.5312h-1200z" fill="#4a5fb5"/>
    <path d="m0 428.36h1200v1.5312h-1200z" fill="#4a60b6"/>
    <path d="m0 429.89h1200v1.5273h-1200z" fill="#4a60b6"/>
    <path d="m0 431.42h1200v1.5312h-1200z" fill="#4b60b6"/>
    <path d="m0 432.95h1200v1.5312h-1200z" fill="#4b60b6"/>
    <g fill="#4b61b6">
     <path d="m0 434.48h1200v1.5312h-1200z"/>
     <path d="m0 436.01h1200v1.5273h-1200z"/>
     <path d="m0 437.54h1200v1.5312h-1200z"/>
     <path d="m0 439.07h1200v1.5312h-1200z"/>
     <path d="m0 440.6h1200v1.5273h-1200z"/>
    </g>
    <path d="m0 442.13h1200v1.5312h-1200z" fill="#4c62b7"/>
    <g fill="#4d62b7">
     <path d="m0 443.66h1200v1.5312h-1200z"/>
     <path d="m0 445.19h1200v1.5312h-1200z"/>
     <path d="m0 446.72h1200v1.5273h-1200z"/>
    </g>
    <g fill="#4d63b7">
     <path d="m0 448.25h1200v1.5312h-1200z"/>
     <path d="m0 449.78h1200v1.5312h-1200z"/>
     <path d="m0 451.31h1200v1.5273h-1200z"/>
     <path d="m0 452.84h1200v1.5312h-1200z"/>
    </g>
    <path d="m0 454.37h1200v1.5312h-1200z" fill="#4d63b8"/>
    <path d="m0 455.9h1200v1.5312h-1200z" fill="#4e64b8"/>
    <path d="m0 457.43h1200v1.5273h-1200z" fill="#4e64b8"/>
    <path d="m0 458.96h1200v1.5312h-1200z" fill="#4f65b9"/>
    <g fill="#5065b9">
     <path d="m0 460.49h1200v1.5312h-1200z"/>
     <path d="m0 462.02h1200v1.5273h-1200z"/>
     <path d="m0 463.55h1200v1.5312h-1200z"/>
     <path d="m0 465.08h1200v1.5312h-1200z"/>
     <path d="m0 466.61h1200v1.5312h-1200z"/>
     <path d="m0 468.14h1200v1.5273h-1200z"/>
    </g>
    <path d="m0 469.67h1200v1.5312h-1200z" fill="#5066b9"/>
    <g fill="#5067ba">
     <path d="m0 471.2h1200v1.5312h-1200z"/>
     <path d="m0 472.73h1200v1.5273h-1200z"/>
     <path d="m0 474.26h1200v1.5312h-1200z"/>
    </g>
    <path d="m0 475.79h1200v1.5312h-1200z" fill="#5167ba"/>
    <g fill="#5268bb">
     <path d="m0 477.32h1200v1.5312h-1200z"/>
     <path d="m0 478.86h1200v1.5273h-1200z"/>
     <path d="m0 480.38h1200v1.5312h-1200z"/>
     <path d="m0 481.91h1200v1.5312h-1200z"/>
     <path d="m0 483.44h1200v1.5273h-1200z"/>
    </g>
    <path d="m0 484.97h1200v1.5312h-1200z" fill="#5368bb"/>
    <g fill="#5469bb">
     <path d="m0 486.5h1200v1.5312h-1200z"/>
     <path d="m0 488.04h1200v1.5312h-1200z"/>
     <path d="m0 489.57h1200v1.5273h-1200z"/>
    </g>
    <path d="m0 491.09h1200v1.5312h-1200z" fill="#536abc"/>
    <path d="m0 492.62h1200v1.5312h-1200z" fill="#546abc"/>
    <path d="m0 494.16h1200v4e-3h-1200z" fill="#546abc"/>
   </g>
  </g>
  <path d="m206.79 220.24v-63.646l-0.35565-0.12617c-0.5483 0.0385-0.63227 0.46672-0.95828 0.69302-0.38035 0.13647-0.40011 0.0222-0.83973 0-0.18276 0.3771-0.48161 0.65851-0.59769 1.0907-0.73352 0.0575-1.2892 0.25779-1.9215 0.39809-0.4248 0.108-0.52854 0.4851-0.71871 0.79255-0.38529-0.17583-0.40998-0.65204-0.95581-0.69383-0.52112-0.0987-0.66684 0.11022-0.96074 0.19945-0.18524-0.41001-0.64709-0.58987-0.71871-1.0921-0.33095-0.28868-0.38529-0.80668-0.96075-0.89349-0.37294-0.28-0.39269 0.33511-0.71871 0.39668-0.24204-0.2586-0.24945 0.51417-0.7187 0.39809-0.30873-1.0669-1.346-1.532-1.5584-2.6794-0.65943 0.0803-0.97557 0.44796-1.4399 0.69404-0.47419 1e-3 -0.83972 0.0961-1.0768 0.29715-0.44456 0.0719-0.51372-0.16957-0.95828-0.0977-0.67178 0.20268-1.4078 0.3563-1.677 0.89268-0.35811-0.39426-0.77551-4e-3 -1.2003 0.0985-0.1803 0.27596-0.48902-0.17199-0.60016 0.10013h-0.59769c-0.29637 0.34783-0.40504 0.85412-0.71871 1.1892-0.44456 4e-3 -0.69401-0.1514-0.96074-0.29574-0.76564 0.71907-1.3707 1.5756-2.5167 1.9832-0.34824 0.60319-0.7681 1.1489-1.0793 1.7862-0.44209 0.49519-0.44456 1.3499-1.0768 1.685-0.4248 0.32421-0.5557-0.20106-0.95828-0.19864-0.25191-0.29574-0.63226 0.13162-1.0818 0-0.40999 0.22307-0.49149 0.71766-0.71871 1.0921-0.13831 0.41404-0.61745 0.54566-0.95828 0.79255-0.84467 0.0394-1.2769-0.26566-1.798-0.49438-0.69648 0.0844-0.60757 0.81919-1.3189 0.89268-0.85208 0.0418-1.1361-0.38255-1.9166-0.3983-0.9978 0.10255-1.225 0.83979-2.1586 0.99362-0.531 0.0103-0.37294-0.55212-0.71871-0.69565-0.51618-0.13465-0.79033-0.47138-1.5584-0.39648-0.22722-0.34157-0.69648-0.48349-0.83973-0.89268-0.44456 0.0291-0.32354 0.52366-0.83973 0.49681-0.27414-0.302-0.48901-0.65306-0.95827-0.79498-0.37541-0.0472-0.48902 0.12375-0.60016 0.29817-0.15807 0.24204-0.44456-0.10881-0.47914 0.10013-0.73353-0.18532-1.2374-0.56141-2.0351-0.69545-0.98298 0.17886-1.6424 0.62439-2.1586 1.1898-0.64955-0.0741-0.70636 0.34298-1.0793 0.49681-0.39517 5e-3 -0.59769 0.16796-1.0768 0.0985-0.55101 0.0418-0.57521 0.51902-0.96124 0.69485-0.40999-0.17987-0.5767 0.0133-1.0786 0-1.1307-0.22166-1.9556-0.69646-2.9973-0.992-0.32996-0.32098-0.65128-0.65064-0.95704-0.9914-0.23636-0.3674-0.39863-0.79719-0.96001-0.89328-0.51619 2e-3 -0.92246 0.0961-1.0786 0.39668-0.47098-0.22327-0.51149 0.23417-0.96 0.29715-0.64634-0.12617-0.86344-0.60723-1.3169-0.89348-0.67055-0.0906-1.0931-0.51256-1.5582-0.49439 8e-3 -0.33753-0.35392-0.37064-0.59991-0.49681-0.88097-1.8831-1.6787-3.8348-2.6368-5.654-0.61744-0.1837-0.79897-0.72936-1.6787-0.69383-0.14177-0.24689-0.40998-0.38881-0.71871-0.49681-0.0793-0.20894-0.23166 0.0277-0.35886 0-0.13312-0.0277-0.11583-0.25476-0.35985-0.19723-0.55002-0.30745-0.59151-1.033-1.4394-1.0921-0.1882-0.63872-0.88566-0.85553-1.1993-1.3879-0.52581-0.10396-0.39368 0.33511-0.83923 0.29817-0.13707-0.48349-0.81231-0.51882-1.0788-0.89349-0.31243 0.33511-0.5152 0.76247-0.83825 1.0899-0.22672 0.15988-0.58954-0.17119-0.95803-0.19642-0.33095 0.25536-0.53051 0.61813-0.83923 0.89025-0.38603 0.022-0.29144-0.35247-0.48062-0.49438-0.37813 0.0182-0.15436 0.53375-0.59818 0.49438-0.18326 0.18128-0.82195-0.0174-0.72069 0.39668l-0.35985-0.49438c-0.64041 0.16311-0.85084 0.68354-1.0776 1.1898-0.81528 0.0537-0.86344 0.74128-1.6787 0.79336-0.51421 0.0291-0.79107-0.13889-1.0776-0.29655-0.68314 2e-3 -0.31168-0.86906-0.96099-0.89268-0.8007-0.0694-0.80737 0.52043-1.1981 0.79255-0.0464 0.25779-0.35713 0.29958-0.35886 0.59532-0.37739-0.0472-0.49026 0.12395-0.59819 0.29817-0.40998 0.1617-0.36182-0.0127-0.60114-0.19945-0.44086 0.0684-0.59522 0.4312-0.83924 0.39809-0.30403 0.25799-0.54335 0.0553-1.0786 0.19723-0.42357-0.0765-0.6503-0.31936-0.83849-0.59532-0.67524-0.0301-0.83553 0.36902-1.4374 0.39809-0.0511-0.22085-0.65894-0.0961-0.60115 0.0985-0.30576-9e-3 -0.19289-0.37043-0.35886-0.4966-0.28279 0.0315-0.44851 0.15766-0.83923 0.10093-0.90024-0.94234-2.2846-1.4826-3.3554-2.2838-1.37-0.518-2.2818-1.4171-3.5958-1.9824-1.4048-0.26022-2.7669-0.55434-4.0771-0.89349-0.46308-0.0537-0.58262 0.17745-1.0776 0.0985-0.73624-0.14979-1.3285-0.42191-2.2769-0.39668-0.56731-0.25779-1.2349-0.43119-2.1581-0.39587-0.38109-0.27818-1.0274-0.34136-1.5592-0.4968-1.7577 0.22084-3.4461 0.0789-4.6733-0.59533-0.42233 0.0489-0.78218 0.14838-1.3196 0.10013-0.57596 0.0157-0.60312-0.42736-1.3189-0.29715-0.34552-0.17503-0.91654-0.16715-1.3169-0.29817-0.80367-0.0703-1.3169 0.10094-2.0386 0.0985-0.9069-0.14191-1.6834-0.39183-2.8768-0.29715-1.7395-0.64276-3.291-1.4432-5.0342-2.0835-0.85208 0.2043-1.7222-0.0993-2.5182-0.0993l-0.12053 0.0993c-0.7844-0.0418-1.3826-0.0733-2.2769 0.10034-0.83256-0.10498-1.3292-0.48753-2.0386-0.69646-0.85553-0.11184-1.1546 0.23498-1.9168 0.19965-1.1867-0.17583-2.272-0.43383-3.2339-0.79498-1.066 0-2.6222-0.21438-3.7173-0.49438-0.58361-0.0616-0.61745-0.0616-1.1981 0-0.78144-0.51013-2.0232-0.64276-2.9976-0.99119-0.47272-0.30362-0.94173-0.60966-1.4384-0.89349-0.43024 0.0592-0.5799-0.11588-0.83948-0.19864-0.52582-6e-3 -0.99063 0.0394-1.3179 0.19864-0.61918-0.1829-0.95803-0.59532-1.7983-0.59532-1.0931-0.0119-1.531 0.518-2.2779 0.79255-0.79576 0.23498-1.858 0.2483-2.7573 0.39809-2.2016-0.302-4.594 0.16554-5.8724-0.89349-1.6372 0.11285-2.822-0.6149-3.9556-0.59532-0.7234-0.22872-1.1403-0.70897-1.7983-0.99119-1.3179-0.29817-2.823-0.4415-3.7153-1.0921-0.81034-0.0892-1.5649-0.2263-2.2776-0.39668-2.3386-0.0567-4.0831-0.26566-6.4728-0.0977-0.47346 3e-3 -0.69648 0.21843-1.0786 0.29716-0.39541-4e-3 -0.5972-0.16796-1.0795-0.10094-0.43789-0.0646-0.46012 0.2154-0.83825 0.19966-2.4004-2e-3 -4.2056 0.13788-5.9942 0.19945-0.93284 0.25234-1.5668 0.75217-2.3974 1.0897-0.74094-0.46128-2.2035 0.0301-2.8758-0.0985-0.69475-0.0868-0.95531-0.53234-1.6787-0.59532-0.39467-0.3012-0.82022-0.57796-1.5582-0.59532-0.34725-0.47319-1.0005-0.69404-1.5579-0.992-1.2302 0.12455-1.7985-0.29736-2.6377-0.49621-0.86739 9e-3 -1.3554 0.33289-2.2769 0.29736-0.60781 8e-3 -0.77576-0.35085-1.3199-0.39668-0.76786-0.0725-1.2174 0.11668-1.9168 0.0993-0.75452 0.31957-1.1993 0.34621-2.0376 0.49621-1.2534 0.0787-2.5152-0.31311-3.7163-0.29736-0.79107 0.0103-1.6797 0.21439-2.3974 0.39668-0.55002 0.13949-1.1452 0.31451-1.5582 0.59451-0.79601-0.19238-1.3285 0.35086-1.7973 0.0985-0.93308 0.55293-2.4206 0.64357-3.1161 1.3903-0.22969 0.18532-0.21709-0.0591-0.60016 0-0.40801 0.19077-0.7313 0.45098-1.0786 0.69404-1.0257 0.14333-1.8091 0.48732-2.5172 0.89247-1.4132 0.1183-2.8151 0.25093-3.7163 0.79498-0.7071-0.24205-1.1247-0.72311-2.0376-0.79498-0.87678 0.10094-1.6313 0.30362-2.3974 0.4954-0.95507-0.26667-1.4268-0.93447-2.2766-1.2894-1.0334-0.0591-1.8756-0.0923-2.7583 0-0.93679 0.24992-1.5214 0.79255-2.2769 1.1906-0.68784 0.45502-1.5977 0.72957-2.3974 1.0921-1.2233 0.21055-2.986-0.0236-4.1947 0.19723-0.63004-0.17341-1.2119-0.38396-1.918-0.49438-1.7385 0.51013-3.2705 1.1947-4.6743 1.9824-0.68314 0.14434-1.3013 0.44008-1.9188 0.69464-1.6893 0.69949-3.5669 1.3713-5.2735 2.182-0.95605 0.23417-2.0558 0.34944-3.1161 0.49681-1.0845 0.42575-2.2016 0.82404-3.1171 1.3879-0.84516-0.0711-1.2485 0.22469-2.0366 0.19864-0.57316-0.0543-1.1549-0.10174-1.5601-0.29715-0.59235 0.25395-1.4973 0.0117-2.1572 0-0.8239-0.54021-1.9768-0.81072-3.1162-1.0907-1.7568 0.0339-2.7312 0.71604-4.1957 0.992-0.48818 0.22489-1.0651 0.37468-1.4385 0.69404-0.54992 0.0394-0.91268 0.23659-1.4375 0.29796-1.0284 0.43928-1.9334 0.97949-2.6376 1.6877-1.5291 0.518-2.8123 1.2435-4.6743 1.4856-1.0226-0.0464-1.8398-0.26182-2.9966-0.19864l-0.54991 0.11588v66.139h296.37" fill="#293476" fill-rule="evenodd"/>
 </g>
</svg>
