<?xml version="1.0" encoding="UTF-8"?>
<!-- Created with Inkscape (http://www.inkscape.org/) -->
<svg width="194.28mm" height="200.38mm" version="1.1" viewBox="0 0 194.28 200.38" xmlns="http://www.w3.org/2000/svg">
 <g transform="translate(62.557 -228.73)">
  <g transform="matrix(70.81 0 0 -70.81 91.881 158.45)">
   <g>
    <path d="m-2.1514-2.0284s0.061778-0.22683 0.016989-0.25299c-0.044789-0.026156-0.021224-0.27999 0.016142-0.31825 0.037365-0.038262-0.012306-0.12425 0.00862-0.22135 0.020875-0.0971 0.112-0.20755 0.15878-0.24019 0.046781-0.032633 0.00139-0.10771 0.10896-0.22688 0.10751-0.11922 0.17278-0.24014 0.24572-0.2788 0.072937-0.038711 0.073336 0.010163 0.15484-0.061977 0.081506-0.07214 0.20118-0.10916 0.24143-0.091869 0.040255 0.017288 0.17746-0.037764 0.22384-0.067208 0.046333-0.029494 0.24686-7.971e-4 0.30296 0.040803 0.056148 0.04155 0.22554 0.070646 0.30585 0.091919 0.080361 0.021273 0.21398 0.037415 0.27282 0.11678 0.058788 0.079364 0.22389 0.12186 0.27142 0.19022 0.047529 0.068354 0.026206 0.14428 0.09999 0.17671 0.073834 0.032483 0.17856 0.23137 0.16361 0.28273-0.014946 0.051365 0.012455 0.10886 0.048824 0.17512 0.036419 0.066311-0.016989 0.066959 0.019729 0.15992 0.036718 0.092965 0.051465 0.20845-0.012904 0.40051-0.064418 0.19206-0.071891 0.30784-0.077322 0.41242-0.005381 0.10462-0.26624 0.2368-0.31621 0.33305-0.05002 0.096253-0.22778 0.11175-0.33758 0.22429-0.10985 0.11254-0.32448 0.10104-0.44863 0.13367-0.12415 0.032633-0.26973 0.057443-0.32154 0.00249-0.051813-0.055002-0.25673 0.041999-0.37385-0.013252-0.085393-0.040305-0.11065-0.1388-0.17995-0.1669-0.0693-0.028049-0.16147-0.12998-0.17213-0.17173-0.010612-0.041799-0.17059-0.026505-0.22285-0.11703-0.052262-0.090574-0.059486-0.20157-0.073037-0.2631-0.01679-0.076475-0.097848-0.12455-0.1245-0.2491" fill="#cfc9ea"/>
    <g fill="#325db3">
     <path d="m-2.1228-2.3003m-3.985e-4 -2.491e-4v-4.98e-5zm0.9432-1.3949c0.065763 0 0.18-0.050867 0.21582-0.073685 0.013701-0.00872 0.063721-0.012505 0.13287-0.00299 0.06402 0.00887 0.12226 0.026106 0.14498 0.042896 0.046084 0.034177 0.15474 0.058838 0.24203 0.078667 0.026754 0.00608 0.052063 0.011808 0.071343 0.016889 0.014548 0.00389 0.03064 0.00752 0.047628 0.011359 0.075478 0.017138 0.16949 0.038462 0.21298 0.0972 0.033181 0.044789 0.093513 0.076923 0.1518 0.10801 0.048774 0.025957 0.099193 0.05281 0.11922 0.081656 0.01679 0.024163 0.024163 0.050169 0.031238 0.075329 0.011857 0.041949 0.024063 0.085293 0.078119 0.10906 0.028248 0.012405 0.0693 0.061379 0.10457 0.12475 0.038013 0.068204 0.050269 0.11872 0.046582 0.13138-0.017537 0.060283 0.012605 0.12261 0.050717 0.19206 0.013701 0.02501 0.011509 0.035522 0.007822 0.053009-0.004733 0.022419-0.010612 0.050369 0.010711 0.10437 0.030988 0.078418 0.053607 0.18553-0.013352 0.38526-0.067108 0.20028-0.073386 0.32119-0.078368 0.41834-0.002591 0.049771-0.088382 0.11798-0.16406 0.17816-0.064866 0.051614-0.1261 0.10029-0.14971 0.14578-0.022619 0.043444-0.079016 0.069649-0.14433 0.09999-0.062824 0.029195-0.13402 0.062226-0.18947 0.11902-0.072688 0.074482-0.19868 0.091172-0.30988 0.10582-0.046881 0.00623-0.091172 0.012057-0.12844 0.021871-0.20397 0.053657-0.27556 0.034376-0.29972 0.00872-0.032931-0.034874-0.098296-0.025408-0.17397-0.014398-0.071244 0.010363-0.15195 0.02207-0.20656-0.00369-0.039259-0.018533-0.065265-0.052212-0.090425-0.084745-0.025359-0.032832-0.051614-0.066809-0.090674-0.082603-0.066112-0.026803-0.15071-0.1243-0.15893-0.15664-0.00772-0.030241-0.043244-0.039109-0.088282-0.050319-0.049472-0.012306-0.11105-0.027601-0.13686-0.072389-0.038212-0.066162-0.051066-0.14368-0.061379-0.20596-0.00304-0.018533-0.00593-0.03602-0.00922-0.050767-0.00832-0.037814-0.029793-0.068453-0.052561-0.10089-0.026405-0.037664-0.056248-0.080161-0.070795-0.14294 0.00409-0.015743 0.016092-0.063173 0.024362-0.11359 0.015295-0.093065 0.00952-0.14209-0.018732-0.15893-0.00324-0.00309-0.011558-0.021024-0.013402-0.069002-0.00349-0.093962 0.018334-0.19868 0.033978-0.21468 0.027252-0.027999 0.021622-0.069599 0.015693-0.11364-0.00483-0.035871-0.010363-0.076525-0.0013-0.11857 0.020028-0.093015 0.10946-0.19849 0.14981-0.22663 0.026604-0.018533 0.031636-0.046234 0.037017-0.075528 0.00727-0.039607 0.016291-0.08888 0.075678-0.15469 0.04175-0.046283 0.077421-0.093065 0.10886-0.13427 0.048326-0.063422 0.090076-0.11817 0.13078-0.1398 0.026106-0.01385 0.040305-0.014548 0.055351-0.015295 0.029593-0.00144 0.054354-0.00588 0.10383-0.049671 0.079862-0.070646 0.19061-0.099791 0.21792-0.088083 0.00772 0.00334 0.017537 0.00478 0.028697 0.00478zm0.2765-0.12684c-0.036469 0-0.067308 0.00468-0.084546 0.015644-0.053208 0.033828-0.17731 0.076624-0.20312 0.065564-0.054255-0.023366-0.18299 0.023167-0.2649 0.095656-0.0416 0.036818-0.056297 0.037515-0.076574 0.038561-0.017437 8.47e-4 -0.039159 0.00189-0.073984 0.020377-0.049322 0.026206-0.09172 0.081756-0.14533 0.1521-0.030939 0.040554-0.065962 0.086538-0.10652 0.13148-0.067856 0.075179-0.079015 0.13611-0.086389 0.17646-0.00483 0.026305-0.00762 0.039309-0.018733 0.047081-0.047828 0.03333-0.14478 0.14662-0.16785 0.25374-0.010662 0.049671-0.00438 0.096403 6.974e-4 0.13392 0.00468 0.034426 0.00867 0.064119-0.00344 0.076574-0.038412 0.039308-0.054304 0.20496-0.043543 0.28423 0.00493 0.036718 0.014996 0.058489 0.031586 0.068503 0.00144 0.00194 0.01375 0.022071-0.00299 0.11987-0.00957 0.055899-0.023615 0.10786-0.023764 0.10836-9.466e-4 0.00344-0.00105 0.00702-2.989e-4 0.010512 0.015943 0.074432 0.049472 0.12216 0.079015 0.16431 0.021024 0.029892 0.039159 0.055749 0.045586 0.084894 0.00299 0.013651 0.00563 0.029793 0.00872 0.048476 0.010363 0.062375 0.024512 0.14777 0.06671 0.22095 0.035323 0.06113 0.11005 0.079713 0.16466 0.093314 0.020128 0.00498 0.050369 0.012505 0.056148 0.018982 0.01375 0.050668 0.11284 0.15674 0.18508 0.18598 0.027949 0.011309 0.048476 0.037864 0.07219 0.068603 0.027053 0.035024 0.057742 0.074681 0.10667 0.097748 0.06676 0.031487 0.15449 0.018733 0.23192 0.00752 0.058091-0.00847 0.11817-0.017188 0.13521 8.968e-4 0.048476 0.051415 0.15758 0.052611 0.34341 0.00379 0.034526-0.00912 0.077521-0.014797 0.12296-0.020775 0.11832-0.015644 0.25244-0.03338 0.33589-0.11887 0.049721-0.050967 0.11414-0.080859 0.17637-0.10975 0.069699-0.032383 0.13551-0.062923 0.16506-0.11982 0.019231-0.037067 0.079564-0.085044 0.1379-0.13148 0.091122-0.072439 0.17721-0.14089 0.1808-0.21069 0.004882-0.09446 0.01096-0.21199 0.076176-0.40649 0.071941-0.21453 0.04449-0.33489 0.012505-0.41575-0.016391-0.0416-0.012555-0.059685-0.008519-0.078916 0.004334-0.020676 0.009267-0.044091-0.012405-0.083549-0.03323-0.060582-0.059735-0.11429-0.046981-0.15818 0.013302-0.045685-0.035223-0.1382-0.050418-0.1655-0.015345-0.027501-0.069699-0.11922-0.12555-0.14378-0.034825-0.015345-0.042497-0.042647-0.053159-0.080411-0.007722-0.027401-0.016491-0.05839-0.037565-0.088681-0.026156-0.037664-0.078916-0.065763-0.13481-0.095506-0.053956-0.028747-0.1098-0.058489-0.13701-0.095257-0.053308-0.071941-0.15619-0.095307-0.23889-0.11404-0.01659-0.00379-0.032234-0.00732-0.046034-0.01101-0.020078-0.00528-0.045735-0.01111-0.072888-0.017288-0.078866-0.017886-0.18683-0.042397-0.22544-0.070994-0.042746-0.031686-0.15843-0.057343-0.24362-0.057343"/>
     <path d="m-1.6939-2.3352c0.00762 0.00478 0.00443 0.01659-0.00453 0.01654-0.02222-1.494e-4 -0.052013-0.00658-0.071841-0.035173-0.035074-0.050618-0.054703-0.053258-0.051764-0.10477 0.00294-0.051515 0.046283-0.09162 0.084346-0.092467 0.00777-1.993e-4 0.014996-2.492e-4 0.021622-2.492e-4 0.00917-4.98e-5 0.012405 0.012107 0.00438 0.01664-0.026305 0.014797-0.055998 0.041251-0.051515 0.083998 0.00628 0.059835 0.036319 0.094858 0.0693 0.11548"/>
     <path d="m-1.5804-2.3832c-0.010412 0.00518-0.020227-0.00817-0.012056-0.016441 0.020327-0.020576 0.038561-0.048525 0.025209-0.07508-0.023615-0.04708-0.072738-0.046234-0.075628-0.075628-0.00423-0.043045 0.06656-0.028198 0.10901 0.02222 0.031337 0.037316 0.020925 0.1117-0.046533 0.14493"/>
    </g>
    <path d="m-0.47263-1.8285s-0.046433 0.052212-0.1119 0.023914c-0.065414-0.028348-0.090574-0.066162-0.080112-0.12236 0.010512-0.056248 0.086439-0.084147 0.10452-0.070895 0.018135 0.013202-0.079564 0.036618-0.061528 0.099492 0.014099 0.049173 0.066012 0.073187 0.090624 0.066112 0.024562-0.00702 0.051315-0.020825 0.05839 0.00374" fill="#376c9a"/>
    <path d="m-0.55394-2.0406c-2.9892e-4 -0.022419 0.087336-0.031935 0.14174 0.00772 0.054354 0.039707 0.041351 0.095357 0.017338 0.14727-0.024014 0.051913-0.032931 0.056546-0.046433 0.052212-0.013551-0.00428 0.013701-0.034277 0.014797-0.069749 0.001544-0.051614-8.9677e-4 -0.067308-0.050618-0.098047-0.049771-0.030739-0.076524-0.016939-0.076823-0.039408" fill="#376c9a"/>
    <path d="m-1.1236-2.5418s-0.084546 0.054952-0.041251 0.10602c0.043294 0.051016 0.13731 0.036319 0.15459-0.017736 0.017238-0.054055-0.014697-0.094012-0.048475-0.10482 0 0 0.043842 0.095905-0.030191 0.094609-0.074034-0.00125-0.034675-0.078069-0.034675-0.078069" fill="#325db3"/>
    <path d="m0.051033-2.3029c0.0056796-0.00259 0.0044839-0.011359-0.0016939-0.012057-0.017786-0.00214-0.042248-0.011608-0.059934-0.044191-0.015245-0.028049-0.015046-0.051614-0.010911-0.068404 0.0015943-0.00643-0.0062276-0.010662-0.010313-0.00563-0.013701 0.016839-0.028348 0.043693-0.028298 0.081058 1.4946e-4 0.059934 0.064966 0.069898 0.11115 0.049223" fill="#376c9a"/>
    <path d="m0.1016-2.3327c-0.0028398 0.00747 0.004683 0.014797 0.011409 0.010961 0.029245-0.016391 0.064468-0.065514 0.035572-0.12082-0.031985-0.06123-0.081257-0.0832-0.13641-0.058639-0.0071244 0.00314-0.0063272 0.014 0.0010961 0.016242 0.022718 0.00688 0.057892 0.022718 0.080311 0.057991 0.023416 0.036817 0.015793 0.073635 0.0080211 0.094261" fill="#376c9a"/>
    <path d="m-1.4277-1.9088c-0.031985 0.043643-0.16077 0.026405-0.13432-0.080211 0.029544-0.11942 0.13606-0.070745 0.13606-0.070745s-0.081756-9.964e-4 -0.073535 0.10293c0.00349 0.04434 0.071792 0.048027 0.071792 0.048027" fill="#325db3"/>
    <path d="m-1.8353-2.0377c-0.031088 0.015594-0.086538 0.030789-0.079215-0.00837 0.00488-0.026006-0.039657-0.040056-0.032931-0.065714 0.00673-0.025608 0.039657-0.042198 0.062276-0.028447-0.021024 0.011658-0.020775 0.04454-0.00508 0.062774 0.015694 0.018234 0.031238 0.035821 0.054952 0.039757" fill="#325db3"/>
    <path d="m-1.0001-1.3227c0.007373 0.026554-0.015992 0.044739-0.043394 0.047828-0.037864 0.00453-0.076275-0.042098-0.08056-0.079962-0.00194-0.017437 0.00209-0.036369 0.014498-0.048774 0.012405-0.012405 0.034028-0.015992 0.047828-0.00513-0.027102 0.0139-0.039159 0.053707-0.019729 0.077172 0.017886 0.021622 0.073834-0.018184 0.081357 0.00887" fill="#376c9a"/>
    <path d="m-0.65702-1.4243c-0.010213-0.00762-0.024512-6.477e-4 -0.035273 0.00618-0.016242 0.010263-0.03343 0.020227-0.052561 0.022369-0.019081 0.00209-0.040554-0.00573-0.048774-0.023117-0.015046-0.031636 0.015245-0.033081 0.030789-0.041301 0.01111-0.00583 0.068503-0.011708 0.014747-0.037864-0.037515-0.018284-0.057792 0.022768-0.060532 0.05291-0.003089 0.033529 0.011309 0.073735 0.043244 0.088531 0.03323 0.015444 0.15295-0.034426 0.10836-0.067706" fill="#376c9a"/>
    <g fill="#325db3">
     <path d="m-1.1736-1.812c0.00359 0.00717-0.018832 0.016291-0.026704 0.017786-0.018234 0.00349-0.051465-0.037415-0.052162-0.055998-6.975e-4 -0.018583 0.012405-0.036768 0.030241-0.041949 0.00986-0.00284 0.020327-0.00204 0.03054-0.0012 0.00274 2.491e-4 0.00563 4.982e-4 0.00792 0.00204 0.00668 0.00453 0.00279 0.015694-0.00414 0.019878-0.00688 0.00414-0.015494 0.00463-0.022519 0.00862-0.010612 0.00613-0.015295 0.020775-0.010163 0.031935 0.00508 0.01116 0.041501 0.00792 0.046981 0.018882"/>
     <path d="m-0.95953-1.8662c0.010811-0.042298 0.064916-0.068354 0.10328-0.047479-0.018782 0.00548-0.03617 0.017786-0.044839 0.035323-0.034476 0.069749 0.096254 0.068354 0.059685 0.10612-0.050568 0.052162-0.13113-0.043195-0.11812-0.093962"/>
     <path d="m-0.77674-2.5526c0.011758 0.00244 0.024163 0.00284 0.035024 0.00792 0.010861 0.00513 0.019878 0.017188 0.016291 0.028647-0.009864 0.00414-0.020277 0.00608-0.030739 0.00618-0.034675 3.488e-4 -0.069998-0.019829-0.089727-0.049372-0.007224-0.010811-0.012953-0.021572-0.013202-0.033579 0.029544 0.00752 0.051564 0.033729 0.082354 0.040205"/>
    </g>
    <path d="m-1.7808-1.7814c-0.02212 0.024462-0.024113 0.064817-0.00443 0.091321 0.019679 0.026505 0.058838 0.036319 0.088731 0.02227 0.00827-0.00394 0.016242-0.00996 0.019281-0.018633 0.00304-0.00867-7.972e-4 -0.020078-0.00957-0.022718-0.010413-0.00314-0.019829 0.00628-0.029444 0.011309-0.019679 0.010313-0.046234 3.986e-4 -0.057294-0.018882-0.01101-0.019281-0.00767-0.044789 0.00518-0.062923l-0.012455-0.00174" fill="#376c9a"/>
    <path d="m-0.40981-1.3c-0.026505-0.00149-0.053906-0.010861-0.070496-0.031537-0.020974-0.026106-0.01948-0.065713-0.001893-0.094211 0.017636-0.028448 0.048625-0.046632 0.080909-0.05545 0.012754-0.00349 0.03054-0.00299 0.034227 0.00971-0.017138 0.014049-0.034874 0.028846-0.044091 0.049024-0.009217 0.020177-0.007124 0.047379 0.010761 0.060532 0.015345 0.011309 0.037067 0.00892 0.054504 0.00115 0.034028-0.015145 0.061279-0.017736 0.031786 0.024313-0.018932 0.027053-0.065066 0.038212-0.095706 0.036469" fill="#325db3"/>
    <path d="m-0.26478-1.4275c-0.003288-0.00229-0.007573-0.00244-0.011558-0.00249-0.014548-2.491e-4 -0.029145-4.982e-4 -0.043693-6.975e-4 -0.008619-0.017935 0.012106-0.038412 0.007623-0.057792-0.00274-0.011808-0.014498-0.019779-0.026455-0.021722-0.011957-0.00194-0.024113 8.968e-4 -0.035871 0.00384 0.022668-0.02516 0.062375-0.033031 0.092916-0.018384 0.026754 0.012903 0.051515 0.04155 0.079763 0.032334 0.005978 0.00772 1.9928e-4 0.018932-0.006726 0.025807-0.006925 0.00688-0.015694 0.01375-0.016092 0.023466-1.4946e-4 0.00463 0.001694 0.00912 0.00284 0.013601 0.007274 0.028149-0.012555 0.05839-0.03612 0.071642-0.002491-0.015096 0.00842-0.058888-0.006626-0.0696" fill="#376c9a"/>
    <path d="m-0.83637-2.2137c-0.004833 0.00991-0.007872 0.021822-0.003089 0.031736 0.006327 0.013003 0.022967 0.016839 0.037415 0.017238 0.024412 6.975e-4 0.044241-0.015544 0.06656-0.025359 0 0-0.003687 0.034077-0.008868 0.040006-0.020227 0.023167-0.051863 0.027053-0.082304 0.031138-0.03044 0.00414-0.062973-0.017636-0.074183-0.046283-0.004783-0.012156-0.004783-0.025757-0.00269-0.038661 0.004583-0.028896 0.020426-0.057094 0.046084-0.071144 0.025658-0.014049 0.061329-0.010662 0.080211 0.011658-0.025458 0.00737-0.047479 0.025857-0.059137 0.049671" fill="#325db3"/>
    <path d="m-2.0219-2.3779c0.00344 0.019779 0.029843 0.030191 0.031138 0.050269 8.47e-4 0.012405-0.00842 0.022768-0.015096 0.03323-0.00668 0.010462-0.010363 0.026106-7.971e-4 0.033978-0.023565 3.487e-4 -0.041849-0.028946-0.031138-0.04997 0.00329-0.00653 0.00882-0.012355 0.00932-0.019679 0.0011-0.015046-0.017935-0.02227-0.026953-0.034376-0.023515-0.031636 0.019878-0.070596 0.04449-0.08335 0.018832 0.02506-0.015693 0.042597-0.010961 0.069898" fill="#376c9a"/>
    <path d="m0.071559-1.7104c0.015245-0.048077-0.006676-0.10527-0.050219-0.13078 0.018085 0.021323 0.023266 0.052511 0.014049 0.078866-0.009167 0.026405-0.032035 0.04733-0.058838 0.055201-0.021672 0.00638-0.050319 0.00115-0.058141-0.020078 0.0087186-6.477e-4 0.019281 0.00339 0.026156-0.00199 0.013352-0.010562 0.0099143-0.035672-8.9677e-4 -0.048774-0.044789-0.054404-0.079065 0.077172-0.051913 0.11424 0.049572 0.067706 0.15853 0.020177 0.1798-0.046682" fill="#325db3"/>
    <path d="m0.18973-2.0767c-0.012256 0.018434-0.05012 0.040554-0.068404 0.028199-0.009067-0.00613-5.4803e-4 -0.043743-5.4803e-4 -0.043743-0.010911 0.011957-0.021971 0.030689-0.035173 0.021373-0.013252-0.00932-0.020128-0.025608-0.02212-0.0417-0.0025907-0.021124 0.002491-0.043145 0.014049-0.06103 0.0068752-0.010612 0.01664-0.020177 0.028946-0.023166 0.012306-0.00294 0.027152 0.00259 0.031586 0.014448 0.004583 0.012256-0.001694 0.029195 0.008719 0.037166 0.004633 0.00359 0.01101 0.00369 0.01659 0.00548 0.020974 0.00688 0.038611 0.04459 0.026355 0.062973" fill="#325db3"/>
    <path d="m0.42324-2.2294c0.044241-0.095656 0.062226-0.19465 0.015743-0.28926-0.014498-0.029444-0.016092-0.070098-0.020426-0.10268-0.007274-0.055201 0.012605-0.058838-0.018533-0.10502-0.016889-0.02506-0.024362-0.091172-0.043394-0.11459-0.031138-0.038412-0.012704-0.057493-0.021522-0.10612-0.013003-0.071393-0.014847-0.10871-0.12983-0.16879-0.010662-0.00553-0.050867-0.034875-0.06118-0.041002-0.018982-0.011359-0.017088-0.038611-0.017138-0.060731-9.964e-5 -0.092517-0.089328-0.17492-0.1815-0.16765-0.023366 0.00179-0.049123 0.00797-0.068603-0.00513-0.014797-0.00991-0.021124-0.028099-0.028298-0.04444-0.036518-0.083449-0.11932-0.14483-0.20979-0.15549-0.049322-0.00583-0.099592 0.00239-0.14886-0.00399-0.077521-0.00996-0.14538-0.054703-0.21642-0.087336-0.070994-0.032633-0.15718-0.05271-0.22514-0.014099-0.036518 0.020725-0.063472 0.056397-0.10173 0.073635-0.055899 0.025259-0.12042 0.00578-0.18155 5.978e-4 -0.06108-0.00513-0.13736 0.017537-0.14782 0.077969-0.00399 0.023366-0.00125 0.054952-0.023615 0.062625-0.017188 0.00593-0.033679-0.00917-0.050319-0.016491-0.035024-0.015345-0.076375 0.00543-0.10138 0.034277-0.02506 0.028896-0.039906 0.065265-0.063372 0.095456-0.06103 0.078567-0.30052 0.17397-0.19784 0.30416 0.039308 0.04987 0.11643 0.065863 0.14986 0.027601 0.019679-0.022569 0.01669-0.061728 0.0417-0.085692 0.026156-0.02506 0.058988-0.02775 0.091222-0.040803 0.04165-0.016839 0.071941-0.053009 0.10911-0.078119 0.037216-0.02511 0.10258-0.044689 0.124-0.00523 0.010363 0.019181-0.00712 0.044988-0.026704 0.054504 0.033181 0.010462 0.06397-0.02212 0.079414-0.053308 0.015494-0.031238 0.029444-0.068603 0.062176-0.08046 0.063671-0.023067 0.11653 0.071592 0.18419 0.068155 0.045387-0.00234 0.074831-0.046632 0.1102-0.07508 0.03049-0.024512 0.071493-0.038661 0.10941-0.028996 0.037864 0.00967 0.069151 0.047529 0.063571 0.08624-0.002292 0.016192-0.010462 0.031437-0.010462 0.047828-4.982e-5 0.016341 0.014049 0.034775 0.029693 0.029942-0.019729-0.026505 0.017537-0.062475 0.050518-0.060831 0.032981 0.00164 0.062625 0.021921 0.095506 0.02486 0.025857 0.00229 0.059735-0.00229 0.070446 0.021323 0.009864 0.021722-0.011658 0.043992-0.030789 0.058191 0.01953 0.027202 0.06402 0.00872 0.084097-0.018085 0.020078-0.026754 0.034825-0.062226 0.06676-0.07224 0.048525-0.015195 0.090275 0.042397 0.09436 0.093065 0.004135 0.050717-0.010263 0.10417 0.009067 0.15126 0.02207 0.053707 0.090424 0.083051 0.14458 0.061927 0.012356-0.00483 0.025209-0.012007 0.038163-0.00892 0.0082702 0.00194 0.014946 0.00782 0.021224 0.013501 0.020327 0.018284 0.040604 0.036568 0.060931 0.054852 0.035572 0.032084 0.073535 0.068653 0.078268 0.11628 0.0036867 0.037266-0.014049 0.073137-0.018185 0.1103-0.0040853 0.037216 0.015893 0.083848 0.053308 0.083699-0.007672-0.018384-0.008071-0.039707-0.001146-0.05839 0.036618-0.020327 0.078567 0.024611 0.082104 0.066311 0.003537 0.0417-0.012405 0.084147-0.003587 0.1251 0.003637 0.016839 0.011359 0.032732 0.0138 0.049821 0.007423 0.051664-0.045536 0.10233-0.096802 0.092666 0.062475 0.021273 0.1383 0.062824 0.12859 0.12809-0.005381 0.036269-0.036718 0.062076-0.056546 0.092915-0.019779 0.030839-0.021373 0.082603 0.013452 0.094161-0.00568-0.01116-0.002441-0.026106 0.007373-0.033928 0.025408-0.00568 0.046234 0.025658 0.04165 0.051265-0.004534 0.025658-0.024312 0.045387-0.041849 0.064667-0.017537 0.019231-0.034675 0.042746-0.032035 0.068653 0.001495 0.014348 0.009067 0.027651 0.009815 0.042049 0.001744 0.034526-0.03323 0.057493-0.058091 0.081507-0.038661 0.037465-0.058589 0.093364-0.052361 0.14682 0.032035-0.041351 0.092517-0.042796 0.14149-0.06108 0.079912-0.029892 0.13432-0.11703 0.12605-0.20197-0.004135-0.042547-0.020974-0.090225 0.004235-0.12475 0.012007-0.016391 0.013452-0.063073 0.029743-0.07513 0.052461-0.03881 0.03044-0.042397 0.008669-0.10388l0.042348-0.10657" fill="#223a6c"/>
    <path d="m-1.5509-2.838c-4.982e-4 0.032682-0.034127 0.054753-0.066809 0.055799-0.032682 0.0011-0.063521-0.019579-0.081008-0.04723-0.00707-0.01121-0.012405-0.023964-0.012355-0.037166 4.98e-5 -0.024761 0.01933-0.046383 0.042049-0.056198 0.022718-0.00981 0.048326-0.010064 0.073087-0.00887-0.036269 0.016441-0.09989 0.065116-0.046931 0.10099 0.025508 0.017238 0.069649 0.00543 0.093862-0.013501l-0.00189 0.00618" fill="#376c9a"/>
    <path d="m-1.7878-2.6717c0.01664-0.011857 0.029046-0.034874 0.018135-0.052162s-0.044141-0.039956-0.037565-0.059287c0.00438-0.012953 0.016939-0.020974 0.026704-0.03064 0.00976-0.00962 0.017138-0.025458 0.00907-0.036518-0.027252 0.010014-0.055899 0.021821-0.072489 0.045685-0.01659 0.023814-0.013601 0.063272 0.012854 0.075179 0.013153 0.00598 0.031537 0.00588 0.037365 0.019131 0.00573 0.013003-0.00428 0.03338 0.00842 0.039757l-0.00249-0.00115" fill="#376c9a"/>
    <path d="m-1.7042-3.1966c-0.00404 0.025658-0.00678 0.052162-7.473e-4 0.077421 0.00608 0.025259 0.022469 0.049322 0.046881 0.05834 0.017786 0.00658 0.037714 0.00448 0.055899-8.968e-4 0.042896-0.012655 0.080261-0.044141 0.098246-0.085094 0.017985-0.040952 0.015544-0.090723-0.00807-0.12869-0.00334-0.00538-0.00757-0.010861-0.013701-0.012405-0.00483-0.0012-0.00986 2.989e-4 -0.014597 0.00189-0.057194 0.019031-0.1113 0.04733-0.15953 0.083449 0.00458-0.00468 0.00917-0.00942 0.0138-0.014099l-0.018185 0.020078" fill="#223a6c"/>
    <path d="m-1.504-3.1409c0.00807-0.028348-0.00991-0.061429-0.038063-0.070098-0.028149-0.00872-0.061678 0.00857-0.070994 0.036519-0.00927 0.027949 0.069002 0.053258 0.045785 0.071393-0.035572 0.0278-0.077122-0.035572-0.07782-0.074482-7.474e-4 -0.03896 0.045685-0.063671 0.083998-0.070596 0.029245-0.00533 0.062475 0.00578 0.07782 0.031238s0.00658 0.064169-0.020725 0.076026" fill="#cfc9ea"/>
    <g fill="#8eacdf">
     <path d="m-1.7081-3.2149c-0.00518 0.044789-0.045885 0.082752-0.090923 0.084695-0.00932 3.986e-4 -0.021772-0.00409-0.020526-0.013352 4.484e-4 -0.00329 0.00274-0.00598 0.00488-0.00852 0.031885-0.036419 0.070098-0.067258 0.1124-0.090773l-0.00583 0.027949"/>
     <path d="m-1.4672-3.3755c-0.016391 0.00817-0.015793-0.041351-0.034077-0.04155-0.018334-1.993e-4 -0.034725 0.02217-0.05281 0.02496-0.022619 0.00344-0.00578-0.049024 0.012505-0.062774 0.018284-0.01375 0.046782-0.00827 0.061578 0.00917 0.014846 0.017437 0.043942 0.054603 0.012804 0.070197"/>
     <path d="m-1.1251-3.5325c-0.00448 0.028946-0.00179 0.076275 0.017686 0.097499 0.01953 0.021224 0.047778 0.032433 0.076026 0.038063 0.013302 0.00264 0.027152 0.00423 0.040404 0.00135 0.015046-0.00324 0.028448-0.012106 0.039657-0.022668 0.017288-0.016242 0.030341-0.036917 0.037565-0.059536-0.031238 0.03338-0.082702 0.046084-0.12585 0.031038-0.043195-0.015046-0.081805-0.040155-0.085492-0.085741"/>
     <path d="m-1.0731-3.5323c0.010412-0.023615 0.039408-0.037266 0.064269-0.030241 0.02486 0.00702 0.042397 0.033878 0.03891 0.059436 0.0278-0.030391 0.012156-0.088033-0.027252-0.10024-0.039408-0.012156-0.084845 0.026554-0.079065 0.067407l0.00314 0.00364"/>
     <path d="m-0.37558-3.4357c-0.026056 0.00279-0.051265-0.00927-0.077222-0.012904-0.021273-0.00299-0.050319 0.00125-0.062375 0.017138-0.001744 0.00234-0.00558 6.975e-4 -0.005181-0.00224 0.00264-0.018185 0.014647-0.035273 0.031736-0.041999 0.021622-0.00852 0.045686-0.00702 0.068802-0.00538 0.013452 9.466e-4 0.0277 0.00219 0.038462 0.010313 0.010761 0.00807 0.015444 0.025658 0.005779 0.035074"/>
    </g>
    <path d="m0.19556-2.9839c-0.013202 2.491e-4 -0.027053-0.00473-0.034775-0.015444-0.007772-0.010662-0.007423-0.027352 0.00269-0.035821 0.010662-0.00897 0.02775-0.00583 0.038163 0.00339s0.015594 0.022868 0.019779 0.03617c-0.00558 0.00837-0.020028 0.00817-0.025408-3.488e-4l-4.4838e-4 0.012057" fill="#cfc9ea"/>
    <path d="m0.024529-3.0728c-0.024014-0.031138-0.076973-0.011808-0.1104-0.032533-0.020177-0.012505-0.029145-0.037615-0.030889-0.061329-0.001744-0.023715-0.015444-0.054105 9.9641e-4 -0.071293 0.010412-0.010861 0.024811-0.028597 0.037764-0.020974 0.0068254 0.00409-0.015793 0.02765-0.015793 0.02765-0.014747 0.034775 0.0037864 0.079862 0.038711 0.094311 0.018683 0.00772 0.040056 0.00737 0.058539 0.015644 0.018434 0.00832 0.033081 0.032234 0.021074 0.048525" fill="#8eacdf"/>
    <path d="m0.1989-2.7122c0.012654 0.020327 0.040056 0.023615 0.062326 0.032284 0.02227 0.00862 0.043344 0.036269 0.02775 0.054354 0.03064-0.00548 0.036668-0.052312 0.014946-0.074681-0.021672-0.02232-0.056546-0.024811-0.087535-0.021423l-0.017487 0.00947" fill="#cfc9ea"/>
    <path d="m0.40426-2.3284c-0.05555 0.00309-0.10891-0.044739-0.1119-0.10034-0.002939-0.05555 0.044988-0.10881 0.10059-0.1117-0.042547 0.020476-0.063073 0.07493-0.05007 0.12032 0.012953 0.045387 0.054703 0.079514 0.10084 0.089478l-0.039458 0.00224" fill="#8eacdf"/>
    <path d="m0.41751-2.3913c0.032533 6.477e-4 0.055401-0.039757 0.043942-0.070197-0.011509-0.03044-0.047379-0.046732-0.079713-0.043145 0.01101 0.01375 0.026704 0.023565 0.035921 0.038611 0.009167 0.015046 0.007772 0.039259-0.008818 0.045287l0.008669 0.029444" fill="#8eacdf"/>
    <path d="m-0.91459-2.6635c-0.014099 0.012953-0.037017 0.017039-0.05291 0.00633 0.035721-0.023565 0.038661-0.09167-7.9713e-4 -0.10821-0.065215-0.027401-0.041052 0.027999-0.081108 0.043145-0.022519 0.00852-0.027202-0.043892-0.014249-0.064169 0.013003-0.020327 0.037465-0.031238 0.061479-0.032533 0.055849-0.00299 0.10866 0.047579 0.10811 0.10343-1.9929e-4 0.019181-0.006377 0.039059-0.020526 0.052013" fill="#325db3"/>
    <path d="m-0.43741-2.1347c0.014199-0.014946 0.004384-0.042198-0.014199-0.051116-0.018583-0.00892-0.039059 0.00483-0.059635 0.00443-0.007373-1.495e-4 -0.021323-0.00772-0.026305-0.013153-0.022918-0.02501 3.9857e-4 -0.050867 0.028946-0.0556 0.044739-0.00742 0.043992 0.017985 0.062276 0.02227 0.037814 0.00887 0.045835 0.031586 0.046981 0.05266 0.001146 0.021024-0.017088 0.042846-0.038063 0.040504" fill="#325db3"/>
    <path d="m-0.23623-2.1321c-0.025757-0.00144-0.083649-0.037714-0.047778-0.073635 0.026704-0.026654 0.064518-0.03333 0.064518-0.03333-0.00847 0.011558-0.042248 0.040006-0.026704 0.064468 0.007722 0.012106 0.04728 0.00658 0.060383 6.476e-4 -0.01126 0.020177-0.027352 0.043145-0.050418 0.041849" fill="#376c9a"/>
    <path d="m-0.091653-1.9285c-0.033181 0.011807-0.074631 0.00782-0.097549-0.018932-0.02217-0.025907-0.020426-0.06666-0.002142-0.095407 0.018284-0.028747 0.04997-0.046782 0.082603-0.056497-0.005729 0.013701-0.011459 0.027352-0.017188 0.041052 0.01126-0.018932 0.048525-0.015943 0.056148 0.00678 0.0083201 0.02501-0.018384 0.052361-0.044589 0.049273 0.032583 0.020675 0.071542-0.023914 0.10731-0.00942 0.0053308 0.00214 0.0035373 0.017686 0.001395 0.023017-0.013202 0.032682-0.05281 0.048326-0.08599 0.060134" fill="#325db3"/>
    <path d="m-0.0040186-2.0895c-0.0021921-0.019032-0.018284-0.034177-0.03622-0.041002-0.017935-0.00683-0.038362-0.00154-0.056796-0.00688-0.0075229-0.00214-0.026455-0.01664-0.026455-0.01664 0.026903-0.01943 0.063123-0.030241 0.093663-0.017188 0.03054 0.013053 0.04728 0.056397 0.025807 0.081706" fill="#325db3"/>
    <path d="m-1.1055-3.2407c-0.010213-0.014049-0.021273-0.028846-0.037515-0.035024-0.016242-0.00618-0.034675 0.00239-0.041949 0.018135-0.00518 0.01116-0.018782 0.039358-0.030988 0.038163-0.039308-0.00374 6.975e-4 -0.084944 0.039458-0.092367 0.03876-0.00747 0.078517 0.032334 0.070994 0.071094" fill="#223a6c"/>
    <g fill="#325db3">
     <path d="m-1.3182-3.0175c-0.046134 0.01116-0.065713 0.062874-0.067656 0.1103-6.477e-4 0.015694 4.484e-4 0.031636 0.00508 0.046632 0.018035 0.058141 0.091271 0.088332 0.14871 0.068105 0.057443-0.020177 0.094809-0.080959 0.097349-0.14179-0.021772 0.010861-0.034376 0.033629-0.050169 0.052162-0.015743 0.018533-0.041152 0.034327-0.063422 0.024462-0.02222-0.00991-0.03881-0.043244-0.060831-0.032832-0.00578 0.00274-0.010512 0.00847-0.016939 0.00862-0.00707 1.993e-4 -0.012256-0.00648-0.015494-0.012754-0.020377-0.039458 0.00563-0.080211 0.03891-0.10956 0.030191-0.026604 0.048276-0.077371 0.076923-0.049123 0.00962 0.00947 0.016939 0.021622 0.028647 0.028348 0.01101 0.00628 0.024263 0.00688 0.036568 0.00986 0.031835 0.00777 0.058539 0.033928 0.066909 0.065614 0.00842 0.031686-0.00179 0.067607-0.025608 0.090175 0.0418-0.024313 0.070446-0.069799 0.074382-0.11798 0.00219-0.026853-0.00613-0.05834-0.030939-0.068802-0.024063-0.010163-0.053906 0.00374-0.077073-0.00842-0.012256-0.00643-0.019878-0.018882-0.028697-0.029494-0.021174-0.025508-0.053806-0.042896-0.086837-0.040305-0.033031 0.00264-0.045835 0.073834-0.049821 0.10677"/>
     <path d="m-0.61587-2.8253c-0.018782 0.035672-0.058589 0.060433-0.098794 0.057244-0.040155-0.00319-0.077023-0.036917-0.079813-0.077122s0.032632-0.080161 0.072937-0.078617c-0.034426 0.01669-0.03328 0.072738-0.00269 0.095606 0.03064 0.022868 0.076226 0.015644 0.10647-0.00772l0.001893 0.010612"/>
     <path d="m-0.566-2.8039c-0.001943 0.00254-0.006078 6.975e-4 -0.00548-0.00249 0.002491-0.012953 0.001395-0.024412 6.4767e-4 -0.039857-9.466e-4 -0.020526-0.012106-0.041999-0.031536-0.048725-0.008719-0.00299-0.018384-0.00289-0.026804-0.00663-0.01096-0.00493-0.018085-0.015494-0.026604-0.024014-0.026554-0.026704-0.071244-0.031885-0.10427-0.014498-0.002989 0.00159-0.006078-0.00204-0.003886-0.00463 0.013103-0.015644 0.028896-0.028996 0.046483-0.039308 0.014797-0.00862 0.031885-0.015245 0.048874-0.012655 0.012754 0.00194 0.024163 0.00892 0.035173 0.015743 0.031736 0.019679 0.081457 0.052063 0.091421 0.088083 0.008071 0.029245-0.003487 0.062276-0.024014 0.08898"/>
     <path d="m-1.3943-1.4889c-0.025857 0.010163-0.052112 0.020426-0.079763 0.022917-0.02765 0.00249-0.057393-0.00389-0.077371-0.023216-0.020028-0.01943-0.027252-0.048575-0.029793-0.076375-0.00259-0.028547-5.978e-4 -0.059336 0.016341-0.082403 0.016989-0.023067 0.053009-0.033629 0.075179-0.015494-0.00927 0.015743-0.018533 0.031487-0.0278 0.04723-0.00822 0.014049-0.014846 0.035472-7.971e-4 0.043643 0.00548 0.00324 0.013153 0.00324 0.01679 0.00847 0.00359 0.00518 9.965e-4 0.012156 4.484e-4 0.018384-0.00169 0.020576 0.020028 0.035422 0.040156 0.039757 0.020128 0.00428 0.042098 0.00319 0.059835 0.013651l0.00678 0.00344"/>
     <path d="m-1.3537-1.5606c-0.00991-0.00942-0.022868-0.015395-0.031736-0.025807-0.018633-0.021772-0.0139-0.055749-0.029195-0.080012-0.018035-0.028547-0.056596-0.034227-0.090275-0.037067 0.022369-0.014896 0.045835-0.030191 0.072489-0.03328 0.026654-0.00309 0.057344 0.010363 0.064418 0.03622 0.00304 0.01111 0.00149 0.023017 0.00433 0.034127 0.00683 0.027152 0.03602 0.041401 0.053358 0.063372 0.028697 0.036469 0.015594 0.10313-0.028697 0.11588 0.00573-0.023017 0.00404-0.0556-0.014697-0.073436"/>
     <path d="m-1.3416-2.1453c-0.013651 0.00159-0.027551 0.00289-0.040903-9.96e-5 -0.029743-0.00658-0.052959-0.041251-0.039956-0.068802 0.00384-0.00817 0.010313-0.014996 0.013501-0.023416 0.00518-0.013501 0.00125-0.028697 0.00319-0.043045 0.00463-0.033828 0.048426-0.055301 0.078019-0.038262-0.00792 0.012854-0.026455 0.018085-0.030441 0.032682-0.00379 0.0139 0.00802 0.026654 0.017686 0.037415 0.00962 0.010761 0.017886 0.02785 0.00817 0.038561 0.034775-0.018384 0.080759 0.084147 0.11862 0.073485-0.071144 0.06671-0.092965-0.012555-0.12789-0.00852"/>
    </g>
    <path d="m-1.2047-2.2435c-0.00433 0.00513-0.024063 0.011857-0.024063 0.011857 0.012405-0.014896 0.0012-0.041999-0.018135-0.043743-0.00737-6.477e-4 -0.014846 0.00174-0.02212 2.989e-4 -0.020177-0.00399-0.021323-0.037565-0.00314-0.04723 0.018234-0.00962 0.053906-0.00414 0.062973 0.014348 0.00912 0.018483 0.017686 0.048675 0.00448 0.064468" fill="#376c9a"/>
    <path d="m-1.0956-1.4443c0.024213-0.011309 0.059735-0.019231 0.072041 0.00453 0.00389 0.00747 0.00399 0.016242 0.00598 0.024412 0.00598 0.024362 0.027999 0.040853 0.042098 0.061628 0.014099 0.020775-0.01126 0.060931 0.013202 0.06656 0.028896 0.00668 0.025209-0.031138 0.037266-0.055201 0.003039-0.00598 0.00553-0.012605 0.004534-0.019181-0.00274-0.018184-0.0277-0.033978-0.0418-0.045685-0.023715-0.019729-0.017537-0.050169-0.042547-0.068254-0.025658-0.018583-0.060632 0.00194-0.085243 0.021871l-0.00553 0.00932" fill="#376c9a"/>
    <path d="m-0.94224-1.2086c0.002292 0.026953 0.036419 0.03597 0.063073 0.040305 0.026704 0.00428 0.060183 0.021174 0.053956 0.047479-0.005032 0.021423-0.03338 0.027302-0.054952 0.022868 0.01375-0.013003 0.009217-0.039657-0.008021-0.047379-0.014697-0.00658-0.032483-1.495e-4 -0.047579-0.00578-0.017786-0.00658-0.025956-0.028597-0.022768-0.047379 0.003139-0.018733 0.014946-0.034775 0.026903-0.049572l-0.010612 0.039458" fill="#325db3"/>
    <g fill="#376c9a">
     <path d="m-0.24072-1.6691c-0.003786 0.015843-0.027252 0.018932-0.040155 0.00902-0.012904-0.00996-0.017686-0.026953-0.021672-0.042746-0.003587-0.014049 4.982e-4 -0.036419 0.014448-0.032533 0.014348 0.00399 0.006228 0.035871 0.017437 0.045636 0.017188 7.972e-4 0.034725-0.00543 0.051913-0.00463 0.001644 0.010014-0.009267 0.019879-0.019032 0.017188l-0.002939 0.00807"/>
     <path d="m-0.43631-1.7082c-0.00842 0.024312-0.041002 0.027401-0.06666 0.026156-0.005929-2.989e-4 -0.012306-7.473e-4 -0.016989-0.00443-0.011708-0.00912-0.002043-0.029594 0.012057-0.034227 0.014149-0.00463 0.029394-9.97e-5 0.04429 2.491e-4 0.020227 5.48e-4 0.040604-0.00717 0.055401-0.020974 0.01111 0.00643 0.0138 0.023665 0.005181 0.03318-0.008569 0.00947-0.026006 0.00857-0.033529-0.00184l2.4911e-4 0.00189"/>
     <path d="m-1.0402-2.2323c-0.011409 0.013003-0.04165 0.00877-0.055351-0.00184-0.01375-0.010612 0.014647-0.018633 0.015345-0.03597 1.495e-4 -0.00448-0.00493-0.013551-0.00892-0.015594-0.010363-0.00528-0.026704 0.00224-0.051365 0.014348 0.012206-0.027949 0.043643-0.046184 0.073984-0.042896 0.040355 0.016341 0.054653 0.047081 0.026305 0.081955"/>
     <path d="m-0.53755-2.3143c-0.013153 0.00857-0.031636 0.00787-0.044091-0.00159 0.012654-0.033978 0.043444-0.072639 0.079713-0.074382 0.008619 0.017686 0.028547 0.074781 0.011808 0.085144-0.017686 0.010911-0.039109-0.010462-0.042746-0.030939l-0.004683 0.021772"/>
    </g>
    <path d="m-0.39043-2.5673c0.010064 0.00543 0.021821 0.00732 0.031387 0.013651 0.019679 0.013003 0.024512 0.040903 0.042995 0.0556 0.020028 0.015943 0.050717 0.01106 0.071244-0.00428 0.020526-0.015295 0.03323-0.038611 0.045337-0.06118 0.013501 0.014597 0.003189 0.037963-0.007523 0.054753-0.020825 0.032533-0.046433 0.068254-0.084695 0.073236-0.028198 0.00369-0.05555-0.010811-0.083848-0.013252-0.012804-0.0011-0.025907 2.99e-4 -0.038362-0.00284-0.012455-0.00314-0.024711-0.012605-0.025508-0.025409-6.9749e-4 -0.01116 0.007224-0.021024 0.008669-0.032035 0.005231-0.040056-0.070148-0.061778-0.055899-0.099542 0.004235-0.011259 0.015843-0.018384 0.020277-0.029544 0.006277-0.016092-0.004085-0.035323 0.00279-0.051116 0.012007-0.027551 0.061578-0.021821 0.084097-0.015793-0.011309 0.038511-0.076375 0.10273-0.01096 0.13775" fill="#325db3"/>
    <path d="m-0.19344-2.6791c0.030291 0.00812 0.04997 0.043792 0.040654 0.073735 0.028398-0.019231 0.039308-0.0555 0.044639-0.089378 0.003388-0.021224 0.005181-0.043693-0.002989-0.063571-0.008121-0.019878-0.029145-0.03597-0.050219-0.031786-0.01375 0.00274-0.025458 0.013352-0.039458 0.013701-0.028896 7.971e-4 -0.11738-0.092716-0.11314-0.00563 0.002441 0.050119 0.082354 0.092716 0.12052 0.10293" fill="#325db3"/>
    <g fill="#376c9a">
     <path d="m-0.26647-3.1513c-9.964e-5 8.469e-4 -1.4946e-4 0.0014-1.9928e-4 0.00174 4.982e-5 -4.484e-4 1.4946e-4 -0.0011 1.9928e-4 -0.00174"/>
     <path d="m-0.26667-3.1495c-4.982e-5 5.979e-4 -9.964e-5 7.473e-4 0 0"/>
     <path d="m-0.26617-3.1534v0"/>
    </g>
    <path d="m-0.29248-3.177c-0.012106 0.012106-0.031088 0.00742-0.046981 0.00115-0.009715-0.00384-0.01953-0.015494-0.022768-0.025408-0.003238-0.00991-2.9892e-4 -0.022668 0.009117-0.027103 0.021224-0.00996 0.04434 0.010961 0.06103 0.027451 0.00568 0.00558 0.005231 0.018284-3.9856e-4 0.023914" fill="#fde6a7"/>
    <path d="m-0.066045-2.973c-0.010562 0.022918-0.004434 0.10447 0.020476 0.10861 0.013402 0.00219 0.029245-0.00164 0.039159 0.00767 0.0051813 0.00483 0.007224 0.012107 0.0089677 0.018982 0.004434 0.017188 0.0088681 0.034376 0.013302 0.051514-0.0087186 0.010562-0.026505 0.00234-0.034127-0.00907-0.0075727-0.011409-0.012007-0.026156-0.024113-0.032583-0.0089179-0.00478-0.019679-0.00364-0.029643-0.00553-0.020725-0.00389-0.037664-0.022668-0.039408-0.043643-0.001744-0.020974-0.007722-0.070895 0.012057-0.078169 8.4695e-4 -0.00772-0.012007-0.018982-0.01111-0.026704l0.04444 0.00892" fill="#223a6c"/>
    <path d="m-0.9245-3.0953c-0.03333-0.00219-0.057294-0.030291-0.054902-0.060682 0.002391-0.03044 0.043493-0.037664 0.073984-0.03622-0.008968 0.00986-0.013501 0.023565-0.012206 0.036867 0.018284-0.00777 0.042049-0.00443 0.050568 0.01659 0.007473 0.018434-0.024113 0.045686-0.057443 0.043444" fill="#8eacdf"/>
    <path d="m-0.68258-2.5763c-0.028149-0.00832-0.043145-0.060084-0.01654-0.072439-0.003637 0.017039 0.01385 0.032633 0.031188 0.033928 0.017387 0.0013 0.033778-0.00727 0.049123-0.015544 6.9749e-4 0.031935-0.033131 0.063173-0.06377 0.054055" fill="#376c9a"/>
    <path d="m-0.63051-1.241c-0.00837-0.00483-0.016142-0.011309-0.025608-0.013352-0.018633-0.00404-0.038013 0.010512-0.056347 0.00523 0.001893-0.016491 0.012206-0.039308 0.026704-0.047379 0.025558-0.014249 0.059287-0.050717 0.088182-0.046234-0.014498 0.013003-0.037814 0.064518 0.011708 0.07498 0.019032 0.00404 0.040604-0.00503 0.057344 0.00488-0.02227 0.030889-0.068952 0.040903-0.10198 0.021871" fill="#325db3"/>
    <path d="m-1.9788-2.924c0.00613-0.015644 0.025907-0.00399 0.042597-0.00219 0.01669 0.00179 0.031337 0.015743 0.033978 0.032284 0.00603 0.037864-0.043593 0.069649-0.033878 0.10672 0.00214 0.00822 0.00712 0.015494 0.00917 0.023764 0.00498 0.019829-0.00867 0.040454-0.026554 0.050369-0.017836 0.00986-0.03896 0.011509-0.059336 0.012904-0.00598 3.985e-4 -0.012405 7.473e-4 -0.017537-0.00234-0.00538-0.00324-0.00812-0.00942-0.00991-0.015395-0.00877-0.028697-0.00259-0.061429 0.015943-0.084994 0.00598-0.00154 0.00952 0.00732 0.00752 0.013252-0.00199 0.00588-0.00658 0.01121-0.00603 0.017437 0.00135 0.015345 0.026554 0.010263 0.034974-0.00264 0.00857-0.013202 0.011658-0.029842 0.00837-0.045187-0.00174-0.00812-0.00518-0.016192-0.00389-0.024412 0.00194-0.012405 0.013601-0.020427 0.022818-0.028996 0.00917-0.00862 0.01674-0.023117 0.00907-0.033081l-0.027302-0.017487" fill="#325db3"/>
    <path d="m-1.519-2.5699c-0.017786-0.012505-0.03049-0.032084-0.034675-0.053408 0.050867-0.022768 0.059735 0.04175 0.092915 0.023665 0.00433 0.00887 0.0012 0.01958-0.00299 0.028547-0.00712 0.015145-0.01933 0.030241-0.03602 0.031636-0.01674 0.0014-0.032832-0.020177-0.021622-0.032632l0.00239 0.00219" fill="#376c9a"/>
    <path d="m-1.2988-1.2011c0.017338 0.010512 0.033729 0.032134 0.023216 0.049472 0.048575-0.00573 0.094908-0.028647 0.12894-0.06377 5.48e-4 -5.481e-4 0.0011-0.00115 0.00164-0.00169-0.020725 0.00807-0.042995 0.016341-0.064767 0.011658-0.021722-0.00463-0.040903-0.028099-0.032483-0.048675 0.00354-0.00857 0.010911-0.018882 0.00448-0.025508-0.00264-0.00279-0.00678-0.00339-0.010562-0.00384-0.062326-0.00767-0.12899 0.034575-0.050468 0.082353" fill="#325db3"/>
    <path d="m-1.7446-1.5267c-0.026006 0.00553-0.054006-0.00468-0.077222 0.00837-0.00593 0.00329-0.012156 0.00742-0.018882 0.00663-0.00678-7.473e-4 -0.012355-0.00981-0.00737-0.014448 0.00877-0.00917 0.00717-0.024711-9.97e-5 -0.035124-0.00722-0.010412-0.021622-0.040006-0.032732-0.046134 0.046682-0.03338 0.055052 0.02212 0.07782 0.03338 0.028697 0.014149 0.047479 0.026953 0.079414 0.029095 0 0-0.014149 0.01674-0.020925 0.018234" fill="#376c9a"/>
    <g fill="#325db3">
     <path d="m-0.39426-1.227c-0.001544 0.00802 0.019081 0.026555 0.019081 0.026555-0.012106 0.00563-0.029942 0.01385-0.035124 0.026156-0.005181 0.012256-0.01116 0.025608-0.023117 0.031537-0.011907 0.00593-0.03054-0.00199-0.028846-0.015245 0.002043-0.016291 0.03064-0.027899 0.020426-0.040803-0.012455-8.469e-4 -0.02496-0.00174-0.037415-0.00259-0.011758-0.012405 0.006875-0.03054 0.023117-0.035971 0.026455-0.00882 0.054304-0.013501 0.082204-0.01385-0.004135 0.00981-0.018334 0.013701-0.020327 0.024213"/>
     <path d="m-0.019314-1.4324c-0.003886 0.013701-0.01375 0.026505-0.011658 0.040604 9.4659e-4 0.00633 0.0042846 0.012057 0.0050817 0.018384 0.0023914 0.018284-0.022619 0.033131-0.037515 0.02227-0.004733-0.024014 0.0026405-0.026206 0.015195-0.04723 0 0-0.020875 0.016491-0.028946 0.020028-0.0055799 0.00244-0.025259 0.011558-0.028896 0.00668-0.006676-0.00892 0.012605-0.032383 0.02217-0.042547 0.0096154-0.010163 0.022668-0.017089 0.030191-0.028846 0.0045337-0.00702 0.0077222-0.016242 0.015694-0.018732 0.013601-0.00428 0.022569 0.015693 0.018683 0.029394"/>
     <path d="m-0.39147-2.8238c-0.012605 0.00299-0.025259-0.00792-0.028298-0.01943l-8.9677e-4 0.00344c-0.002541 0.00981-0.011558 0.016541-0.021672 0.016242-0.011558-3.488e-4 -0.020426-0.010363-0.01953-0.021871 9.9641e-4 -0.012754 0.001794-0.025558 0.008918-0.037116 0.003886-0.00638 0.010014-0.011359 0.017288-0.012903 0.016142-0.00339 0.025757 0.010014 0.036369 0.019579 0.008918 0.00807 0.023864 0.013551 0.032035 0.00478 0.004035 0.019181-0.005082 0.042846-0.024213 0.04728"/>
    </g>
   </g>
  </g>
 </g>
</svg>
